<svg width="96" height="24" viewBox="0 0 96 24" xmlns="http://www.w3.org/2000/svg" fill="none">
    <path opacity="0.8" fill-rule="evenodd" clip-rule="evenodd"
        d="M12.6265 0C12.7192 1.21107 12.3362 2.4106 11.5588 3.34385C10.8046 4.28194 9.66176 4.82227 8.45813 4.80988C8.38159 3.63367 8.77573 2.47527 9.55375 1.58983C10.3417 0.692389 11.4388 0.124745 12.6265 0ZM47.9135 0.415859H47.0622V6.41335H47.9135V0.415859ZM28.7062 1.48009C28.1852 0.929919 27.445 0.642377 26.6892 0.696612H24.6245V6.41256H26.6892C28.3918 6.41256 29.3787 5.36289 29.3787 3.53679C29.474 2.78509 29.2272 2.03027 28.7062 1.48009ZM26.5891 5.60366H25.5114V1.50383H26.5891C27.1263 1.47401 27.6488 1.68585 28.0136 2.0814C28.3784 2.47695 28.5473 3.01482 28.4741 3.5479C28.553 4.0832 28.3865 4.62554 28.0208 5.02434C27.6551 5.42315 27.1292 5.63595 26.5891 5.60366ZM31.3384 2.32426C30.6784 2.7338 30.3076 3.48207 30.3816 4.25525C30.3062 5.02926 30.6766 5.77898 31.3372 6.1894C31.9977 6.59982 32.834 6.59982 33.4945 6.1894C34.1551 5.77898 34.5255 5.02926 34.4501 4.25525C34.5241 3.48207 34.1533 2.7338 33.4934 2.32426C32.8334 1.91472 31.9983 1.91472 31.3384 2.32426ZM32.419 2.77363C33.1562 2.77363 33.5762 3.32043 33.5762 4.25546C33.5762 5.19424 33.1562 5.74057 32.419 5.74058C31.679 5.74058 31.2627 5.19799 31.2627 4.25547C31.2627 3.32043 31.679 2.77363 32.419 2.77363ZM38.9755 6.4132H39.8586L41.0429 2.09961H40.1916L39.4226 5.39113H39.3553L38.4684 2.09961H37.6517L36.7649 5.39113H36.7013L35.9286 2.09961H35.0651L36.2541 6.4132H37.1288L38.0166 3.23624H38.0839L38.9755 6.4132ZM42.0429 2.09996H42.8624V2.78521H42.926C43.1472 2.28068 43.6642 1.97206 44.2133 2.01669C44.6384 1.98473 45.055 2.14783 45.3455 2.45994C45.6359 2.77205 45.7687 3.19931 45.7063 3.62107V6.4135H44.855V3.83485C44.855 3.14164 44.5538 2.79691 43.9242 2.79691C43.6358 2.78347 43.3559 2.89665 43.158 3.10676C42.96 3.31687 42.8636 3.60297 42.8942 3.89004V6.41355H42.0429L42.0429 2.09996ZM50.0535 2.32423C49.3934 2.73377 49.0226 3.48206 49.0965 4.25529C49.0213 5.02933 49.3917 5.77903 50.0523 6.18943C50.7129 6.59983 51.5491 6.59983 52.2097 6.18943C52.8703 5.77903 53.2408 5.02933 53.1655 4.25529C53.2394 3.48206 52.8686 2.73377 52.2086 2.32423C51.5486 1.91468 50.7135 1.91468 50.0535 2.32423ZM51.1338 2.77363C51.871 2.77363 52.291 3.32043 52.291 4.25546C52.291 5.19424 51.871 5.74057 51.1338 5.74058C50.3938 5.74058 49.9775 5.19799 49.9775 4.25547C49.9775 3.32043 50.3938 2.77363 51.1338 2.77363ZM54.0629 5.19403C54.0629 4.41756 54.6411 3.96992 55.6673 3.90631L56.8358 3.83895V3.46663C56.8358 3.01103 56.5345 2.75377 55.9526 2.75377C55.4774 2.75377 55.1481 2.92825 55.0536 3.23322H54.2295C54.3165 2.4923 55.0134 2.01707 55.9919 2.01707C57.0734 2.01707 57.6833 2.55544 57.6833 3.46663V6.41392H56.8638V5.80772H56.7965C56.5181 6.25041 56.0232 6.50914 55.5008 6.48499C55.1346 6.52308 54.7694 6.40449 54.4954 6.15852C54.2215 5.91256 54.0644 5.56219 54.0629 5.19403ZM56.8366 4.82551V4.46488L55.7833 4.53224C55.1892 4.57199 54.9198 4.77406 54.9198 5.15434C54.9198 5.54257 55.2566 5.76849 55.7197 5.76849C55.9938 5.79625 56.2675 5.71155 56.4781 5.53379C56.6886 5.35603 56.818 5.10044 56.8366 4.82551ZM60.5923 2.02848C59.5025 2.02848 58.8018 2.89195 58.8018 4.25498C58.8018 5.62127 59.495 6.48476 60.5924 6.48472C61.1487 6.50522 61.6705 6.21533 61.947 5.73211H62.0143V6.41363H62.8301V0.416133H61.9788V2.78527H61.9151C61.6581 2.29801 61.1427 2.00313 60.5923 2.02848ZM60.8328 5.72082C60.1115 5.72082 59.6803 5.17028 59.6803 4.25535H59.6802C59.6802 3.34791 60.1162 2.79363 60.8328 2.79363C61.5457 2.79363 61.9938 3.36008 61.9938 4.2591C61.9938 5.16233 61.5503 5.72082 60.8328 5.72082ZM66.3538 4.25521C66.2799 3.48203 66.6506 2.73376 67.3106 2.32422C67.9705 1.91469 68.8056 1.91469 69.4656 2.32422C70.1255 2.73376 70.4963 3.48203 70.4223 4.25521C70.4977 5.02922 70.1273 5.77894 69.4667 6.18936C68.8062 6.59978 67.97 6.59978 67.3094 6.18936C66.6489 5.77894 66.2785 5.02922 66.3538 4.25521ZM69.5483 4.25546C69.5483 3.32043 69.1282 2.77363 68.3911 2.77363C67.6511 2.77363 67.2348 3.32043 67.2348 4.25547C67.2348 5.19799 67.6511 5.74058 68.3911 5.74058C69.1282 5.74057 69.5483 5.19424 69.5483 4.25546ZM71.5638 2.09996H72.3833V2.78521H72.4469C72.6682 2.28068 73.1851 1.97206 73.7342 2.01669C74.1593 1.98473 74.576 2.14783 74.8664 2.45994C75.1569 2.77205 75.2897 3.19931 75.2272 3.62107V6.4135H74.3759V3.83485C74.3759 3.14164 74.0747 2.79691 73.4451 2.79691C73.1567 2.78347 72.8769 2.89665 72.6789 3.10676C72.4809 3.31687 72.3846 3.60297 72.4151 3.89004V6.41355H71.5638V2.09996ZM80.0346 2.11977V1.02617H79.1824V2.11973H78.4976V2.8368H79.1824V5.27287C79.1824 6.10453 79.5594 6.43757 80.5061 6.43757C80.6614 6.43597 80.8163 6.42142 80.9692 6.39407V5.68496C80.8614 5.6977 80.753 5.70426 80.6445 5.70461C80.2208 5.70461 80.0346 5.50676 80.0346 5.05491V2.83684H80.9692V2.11977H80.0346ZM82.136 0.415859H82.9798V2.79297H83.0472C83.279 2.28403 83.805 1.97501 84.3625 2.02025C84.7852 1.99725 85.1962 2.16394 85.4835 2.47492C85.7707 2.7859 85.9044 3.20878 85.848 3.62837V6.41336H84.9959V3.83839C84.9959 3.14939 84.675 2.80044 84.0735 2.80044C83.7773 2.77615 83.4855 2.88382 83.2761 3.09467C83.0667 3.30552 82.961 3.59804 82.9874 3.89404V6.41334H82.136L82.136 0.415859ZM90.8087 5.24933C90.57 6.063 89.7826 6.58872 88.9395 6.49729C88.3643 6.51247 87.8116 6.27406 87.4278 5.8453C87.0441 5.41654 86.8683 4.84079 86.9469 4.2708C86.8703 3.69923 87.0455 3.12256 87.4271 2.69018C87.8087 2.2578 88.3591 2.01226 88.9358 2.01718C90.136 2.01718 90.8601 2.83719 90.8601 4.19173V4.48879H87.8141V4.53649C87.7872 4.85658 87.8965 5.17319 88.1152 5.40846C88.3339 5.64373 88.6417 5.77582 88.9629 5.77225C89.3794 5.82225 89.7848 5.61566 89.9892 5.24931L90.8087 5.24933ZM87.8156 3.85948H89.9943C90.016 3.56673 89.9131 3.27843 89.7109 3.06563C89.5087 2.85282 89.226 2.7353 88.9325 2.74203C88.6351 2.73829 88.3487 2.85484 88.1384 3.06523C87.9281 3.27563 87.8117 3.56203 87.8156 3.85948ZM26.4401 17.917H30.9745L32.0625 21.1323H34.0158L29.7209 9.23645H27.7255L23.4306 21.1323H25.3512L26.4401 17.917ZM30.5067 16.4337H26.9125L28.6853 11.2155H28.7349L30.5067 16.4337ZM43.2884 16.7956C43.2884 19.4908 41.8459 21.2224 39.669 21.2224C38.5438 21.2813 37.4838 20.6919 36.9401 19.705H36.8989V24.0008H35.1187V12.4586H36.8419V13.9012H36.8746C37.4425 12.9205 38.5036 12.3314 39.6362 12.3679C41.8374 12.3679 43.2884 14.1079 43.2884 16.7956ZM41.4586 16.7954C41.4586 15.0395 40.5512 13.885 39.1666 13.885C37.8064 13.885 36.8915 15.0638 36.8915 16.7954C36.8915 18.5429 37.8064 19.7132 39.1666 19.7132C40.5512 19.7132 41.4586 18.5672 41.4586 16.7954ZM49.2162 21.2224C51.3931 21.2224 52.8357 19.4908 52.8357 16.7956C52.8357 14.1079 51.3847 12.3679 49.1834 12.3679C48.0508 12.3314 46.9897 12.9205 46.4218 13.9012H46.3891V12.4586H44.6659V24.0008H46.4462V19.705H46.4874C47.0311 20.6919 48.091 21.2813 49.2162 21.2224ZM48.7138 13.885C50.0984 13.885 51.0058 15.0395 51.0058 16.7954C51.0058 18.5672 50.0984 19.7132 48.7138 19.7132C47.3536 19.7132 46.4387 18.5429 46.4387 16.7954C46.4387 15.0638 47.3536 13.885 48.7138 13.885ZM61.9872 19.7708C60.4212 19.7708 59.2752 18.9962 59.1433 17.8166L57.3209 17.8165C57.436 19.9681 59.2172 21.3293 61.8553 21.3293C64.6749 21.3293 66.4477 19.9354 66.4477 17.7098C66.4477 15.9698 65.4336 14.9894 62.9929 14.4122L61.6822 14.0904C60.149 13.7115 59.5222 13.2167 59.5222 12.3756C59.5222 11.3204 60.5035 10.5954 61.9376 10.5954C63.3718 10.5954 64.3531 11.312 64.4607 12.4991H66.2578C66.1998 10.4466 64.4766 9.03684 61.9629 9.03684C59.423 9.03684 57.6344 10.4466 57.6344 12.4991C57.6344 14.1568 58.6484 15.1784 60.8328 15.706L62.3745 16.0774C63.9162 16.4563 64.5674 17.0092 64.5674 17.9325C64.5674 18.9962 63.4878 19.7708 61.9872 19.7708ZM70.2904 10.4056V12.4581H71.9396V13.8679H70.2904V18.6492C70.2904 19.392 70.6206 19.7381 71.3456 19.7381C71.5414 19.7347 71.7369 19.721 71.9312 19.697V21.0983C71.6053 21.1592 71.2739 21.1868 70.9424 21.1807C69.1865 21.1807 68.5017 20.5211 68.5017 18.8391V13.8679H67.2406V12.4581H68.5016V10.4056H70.2904ZM72.8956 16.7955C72.8956 14.0666 74.5028 12.3518 77.009 12.3518C79.5237 12.3518 81.1234 14.0666 81.1234 16.7955C81.1234 19.5318 79.5321 21.2391 77.009 21.2391C74.4869 21.2391 72.8956 19.5318 72.8956 16.7955ZM79.3103 16.7948C79.3103 14.9229 78.4524 13.8181 77.0099 13.8181C75.5674 13.8181 74.7104 14.9313 74.7104 16.7948C74.7104 18.6743 75.5674 19.7707 77.0099 19.7707C78.4524 19.7707 79.3103 18.6743 79.3103 16.7948ZM82.5913 12.4582H84.2892V13.9344H84.3304C84.5672 12.9841 85.4379 12.3301 86.4165 12.3674C86.6217 12.3667 86.8263 12.389 87.0265 12.4338V14.099C86.7675 14.0199 86.4973 13.9836 86.2266 13.9915C85.7032 13.9702 85.1967 14.1788 84.8401 14.5624C84.4834 14.9461 84.3122 15.4664 84.3715 15.9869V21.1312H82.5912L82.5913 12.4582ZM95.2359 18.5841C94.9964 20.1586 93.4631 21.2391 91.5014 21.2391C88.9783 21.2391 87.4123 19.5486 87.4123 16.8366C87.4123 14.1162 88.9867 12.3518 91.4265 12.3518C93.8261 12.3518 95.3351 14.0002 95.3351 16.6299V17.2398H89.2094V17.3474C89.1522 17.9931 89.3752 18.6322 89.8216 19.1023C90.268 19.5723 90.8948 19.8279 91.5425 19.804C92.4065 19.885 93.221 19.3889 93.5455 18.5841L95.2359 18.5841ZM89.2161 15.9964L93.5521 15.9964C93.5844 15.4162 93.3732 14.8488 92.9694 14.4309C92.5656 14.0131 92.0058 13.7826 91.4248 13.7951C90.8392 13.7916 90.2765 14.0222 89.8618 14.4355C89.447 14.8489 89.2146 15.4108 89.2161 15.9964ZM14.1751 11.0932C14.1961 9.46804 15.0481 7.9669 16.4326 7.1157C15.5552 5.86259 14.1383 5.09658 12.6093 5.04874C11.6253 4.94546 10.6597 5.32869 9.87053 5.64189C9.36957 5.84072 8.93971 6.01132 8.6214 6.01132C8.25929 6.01132 7.81709 5.8337 7.32161 5.63468C6.67372 5.37445 5.93474 5.07762 5.16462 5.09347C3.37643 5.15124 1.74977 6.14328 0.879777 7.70664C-0.972904 10.9143 0.409029 15.6284 2.18374 18.2212C3.07167 19.4908 4.1094 20.909 5.46725 20.8587C6.08321 20.8332 6.52028 20.6493 6.97172 20.4593C7.49412 20.2394 8.03576 20.0114 8.89615 20.0114C9.70741 20.0114 10.2258 20.2323 10.7234 20.4442C11.2003 20.6474 11.6581 20.8424 12.3362 20.8268C13.762 20.8036 14.6603 19.5515 15.517 18.2699C16.155 17.3652 16.6459 16.3654 16.9716 15.3074C15.2782 14.5911 14.1771 12.9318 14.1751 11.0932Z"
        fill="white"></path>
</svg>