<svg viewBox="0 0 24 24" viewBox="0 0 24 24" fill="none" xmlns="http://www.w3.org/2000/svg">
    <title>Download Linux (.deb)</title>
    <path
        d="M3.03345 9.96707C1.91005 9.96707 1 10.8771 1 12.0004C1 13.1231 1.91005 14.0333 3.03333 14.0333C4.15614 14.0333 5.06619 13.1231 5.06619 12.0004C5.06619 10.8771 4.15614 9.96707 3.03345 9.96707ZM17.5487 19.2069C16.5764 19.7686 16.243 21.0112 16.8047 21.983C17.3657 22.9555 18.6083 23.2888 19.5807 22.7272C20.553 22.1661 20.8865 20.9234 20.3249 19.9509C19.7638 18.9792 18.5205 18.6459 17.5487 19.2069ZM7.44931 12.0004C7.44931 9.9914 8.44725 8.21638 9.9741 7.14164L8.48792 4.65227C6.7092 5.84126 5.38568 7.65802 4.83567 9.78592C5.47727 10.3095 5.88811 11.1067 5.88811 12.0003C5.88811 12.8934 5.47739 13.6906 4.83567 14.2143C5.38485 16.3427 6.70836 18.1597 8.4878 19.3487L9.97398 16.8586C8.44713 15.7844 7.44931 14.0095 7.44931 12.0004ZM13.3874 6.06177C16.4896 6.06177 19.0348 8.44023 19.3019 11.4736L22.1988 11.431C22.0563 9.19154 21.078 7.18111 19.5748 5.7028C18.8018 5.99486 17.9088 5.95014 17.1372 5.50531C16.364 5.05917 15.8794 4.30654 15.7467 3.48963C14.9783 3.27697 14.1846 3.16906 13.3872 3.16883C12.0296 3.16746 10.6901 3.48024 9.47346 4.0827L10.8861 6.61428C11.6695 6.24965 12.5233 6.06109 13.3874 6.06189V6.06177ZM13.3874 17.9386C12.5233 17.9393 11.6695 17.7508 10.8861 17.3862L9.47358 19.9174C10.6901 20.5205 12.0298 20.8336 13.3876 20.8322C14.185 20.832 14.9787 20.7238 15.747 20.5106C15.8795 19.6937 16.3644 18.9418 17.1373 18.4949C17.9096 18.0492 18.802 18.0053 19.5749 18.2974C21.0781 16.8191 22.0565 14.8087 22.199 12.5693L19.3014 12.5266C19.0349 15.5608 16.4898 17.9384 13.3875 17.9384L13.3874 17.9386ZM17.548 4.79275C18.5204 5.35421 19.7632 5.02173 20.3243 4.04931C20.8859 3.07688 20.5533 1.83411 19.5807 1.27241C18.6083 0.711424 17.3657 1.04463 16.8038 2.01705C16.243 2.98899 16.5763 4.23165 17.548 4.79275Z"
        fill="white"></path>
</svg>