<svg width="104" height="26" viewBox="0 0 104 26" fill="none" xmlns="http://www.w3.org/2000/svg">
    <path fill-rule="evenodd" clip-rule="evenodd"
        d="M52.5726 1.58644C53.082 1.05071 53.7946 0.755967 54.5336 0.77531C55.2711 0.763642 55.9807 1.05716 56.4945 1.58644C57.0123 2.11315 57.2952 2.82681 57.2789 3.56524C57.3026 4.30496 57.0186 5.02141 56.4945 5.54403C55.9746 6.06439 55.2692 6.35676 54.5336 6.35676C53.798 6.35676 53.0925 6.06439 52.5726 5.54403C52.0486 5.02141 51.7646 4.30496 51.7882 3.56524C51.7646 2.82551 52.0486 2.10907 52.5726 1.58644ZM54.4985 5.70541C55.0446 5.70541 55.5679 5.48662 55.9514 5.09794C56.3635 4.69514 56.5922 4.14096 56.5843 3.56481C56.6016 2.99389 56.386 2.44046 55.9871 2.03169C55.6035 1.64301 55.0802 1.42421 54.5342 1.42421C53.9881 1.42421 53.4648 1.64301 53.0813 2.03169C52.6823 2.44046 52.4667 2.99389 52.4841 3.56481C52.4572 4.13062 52.6597 4.68334 53.0456 5.09794C53.4292 5.48662 53.9525 5.70541 54.4985 5.70541ZM30.5216 4.0195V3.37773L33.1511 3.38664C33.1592 3.52022 33.1592 3.65417 33.1511 3.78775C33.1807 4.44828 32.9392 5.09223 32.4826 5.57045C31.9705 6.09921 31.2572 6.38452 30.5216 6.35484C29.7823 6.37132 29.0692 6.0809 28.5518 5.55262C28.0156 5.03244 27.7215 4.3117 27.7406 3.56491C27.7215 2.81813 28.0156 2.09739 28.5518 1.5772C29.3637 0.783824 30.5726 0.555406 31.618 0.997824C31.9394 1.12995 32.2261 1.33429 32.4559 1.59503L31.9835 2.06744C31.6246 1.6351 31.0828 1.39726 30.5216 1.42567C29.9591 1.42291 29.4196 1.64948 29.0278 2.05313C28.6359 2.45678 28.4254 3.00266 28.4448 3.56491C28.4254 4.12716 28.6359 4.67305 29.0278 5.0767C29.4196 5.48035 29.9591 5.70691 30.5216 5.70415C31.0787 5.71758 31.6169 5.50167 32.0102 5.10695C32.2884 4.81147 32.4499 4.42507 32.4648 4.0195H30.5216ZM33.861 16.81V15.2056H39.2804C39.337 15.5353 39.3638 15.8694 39.3606 16.2039C39.4049 17.5936 38.9061 18.946 37.9701 19.9743C36.8983 21.0849 35.4032 21.6849 33.861 21.6233C31.703 21.7073 29.672 20.6039 28.568 18.7477C27.464 16.8916 27.464 14.5802 28.568 12.7241C29.672 10.8679 31.703 9.76455 33.861 9.84854C35.3703 9.82462 36.8256 10.4093 37.8988 11.4708L36.7668 12.6028C35.9814 11.8499 34.931 11.4368 33.8432 11.453C31.4802 11.453 29.5647 13.3685 29.5647 15.7314C29.5647 18.0944 31.4802 20.0099 33.8432 20.0099C34.9573 20.0567 36.0391 19.6292 36.8203 18.8333C37.3371 18.2787 37.6512 17.5657 37.7116 16.81H33.861ZM39.9492 17.8426C39.9442 15.7455 41.6403 14.0415 43.7374 14.0365C44.7495 14.0171 45.7262 14.4094 46.4437 15.1235C47.1613 15.8377 47.5581 16.8125 47.5434 17.8248C47.5484 19.9219 45.8523 21.6259 43.7552 21.6308C41.6581 21.6357 39.9541 19.9397 39.9492 17.8426ZM52.0449 14.0365C49.9478 14.0415 48.2517 15.7455 48.2567 17.8426C48.2616 19.9397 49.9656 21.6357 52.0627 21.6308C54.1598 21.6259 55.8559 19.9219 55.8509 17.8248C55.8656 16.8125 55.4688 15.8377 54.7512 15.1235C54.0337 14.4094 53.057 14.0171 52.0449 14.0365ZM52.0446 20.1255C51.1026 20.1914 50.2161 19.6748 49.8091 18.8228C49.4021 17.9708 49.5572 16.9565 50.2004 16.2651C50.8435 15.5738 51.8439 15.3458 52.7231 15.6903C53.6023 16.0347 54.1815 16.8816 54.1838 17.8259C54.2128 18.4165 54.002 18.9939 53.5992 19.4269C53.1964 19.8599 52.6358 20.1118 52.0446 20.1255ZM43.7371 20.1255C42.7951 20.1914 41.9086 19.6748 41.5016 18.8228C41.0946 17.9708 41.2497 16.9565 41.8929 16.2651C42.536 15.5738 43.5364 15.3458 44.4156 15.6903C45.2948 16.0347 45.874 16.8816 45.8763 17.8259C45.9053 18.4165 45.6945 18.9939 45.2917 19.4269C44.8889 19.8599 44.3283 20.1118 43.7371 20.1255ZM74.2483 16.4523C73.7724 15.0522 72.4816 14.0912 71.0038 14.0368C70.0183 14.0349 69.0759 14.4409 68.4005 15.1586C67.7251 15.8762 67.3768 16.8414 67.4384 17.825C67.4227 19.4961 68.509 20.9782 70.1073 21.4663C71.7056 21.9545 73.4346 21.3322 74.3553 19.9375L73.0628 19.0462C72.6708 19.6996 71.9619 20.0965 71.1999 20.0891C70.4091 20.1217 69.6796 19.6649 69.3637 18.9392L74.4355 16.8445L74.2483 16.4523ZM69.6072 16.1949C69.233 16.611 69.0426 17.1605 69.0791 17.719L72.4662 16.3106C72.2029 15.7868 71.652 15.471 71.0668 15.5084C70.5077 15.5312 69.9814 15.7787 69.6072 16.1949ZM64.9608 21.3907H66.6277V10.2488H64.9608V21.3907ZM62.1712 14.8835H62.2336V14.2595H63.7756V21.0516C63.7756 23.8505 62.1623 25.0003 60.2102 25.0003C58.7329 25.0201 57.3964 24.1268 56.8498 22.7541L58.2938 22.1569C58.6008 22.9525 59.3577 23.4841 60.2102 23.5028C61.4581 23.5028 62.2336 22.7274 62.2336 21.2745V20.7307H62.1712C61.6718 21.3106 60.9397 21.6374 60.1746 21.6221C58.1513 21.524 56.5613 19.855 56.5613 17.8294C56.5613 15.8038 58.1513 14.1348 60.1746 14.0367C60.9312 14.0174 61.6592 14.3261 62.1712 14.8835ZM60.3152 20.1259C59.103 20.0503 58.1586 19.0452 58.1586 17.8307C58.1586 16.6162 59.103 15.611 60.3152 15.5355C60.8919 15.5603 61.4338 15.8182 61.8169 16.25C62.2 16.6818 62.3915 17.2506 62.3475 17.8262C62.3966 18.4039 62.2072 18.9764 61.8233 19.4109C61.4394 19.8453 60.8945 20.1036 60.3152 20.1259ZM78.0639 10.2512H82.0572C83.352 10.1581 84.5904 10.7962 85.2661 11.9046C85.9419 13.0131 85.9419 14.4061 85.2661 15.5146C84.5904 16.623 83.352 17.2611 82.0572 17.168H79.7307V21.393H78.0639V10.2512ZM82.0562 15.5981H79.7297V11.801H82.0918C83.1453 11.801 83.9993 12.655 83.9993 13.7085C83.9993 14.7619 83.1453 15.616 82.0918 15.616L82.0562 15.5981ZM89.3747 15.7048C89.9351 14.5953 91.1022 13.9258 92.3429 14.0023L92.3786 14.0202C94.2772 14.0202 95.7568 15.1522 95.7568 17.1042V21.3916H94.1524V20.5003H94.0989C93.6399 21.2192 92.8291 21.6348 91.9775 21.5877C91.2822 21.6415 90.5947 21.4111 90.0723 20.9492C89.5499 20.4872 89.2371 19.8332 89.2054 19.1365C89.2054 17.5142 90.8276 16.6229 92.4142 16.6229C93.0198 16.6222 93.6164 16.769 94.1524 17.0507V16.9438C94.1098 16.5156 93.8971 16.1224 93.5619 15.8525C93.2267 15.5827 92.7971 15.4588 92.3697 15.5087C91.7461 15.4548 91.149 15.7725 90.8455 16.3198L89.3747 15.7048ZM92.1378 20.1086C91.5941 20.1086 90.8364 19.8323 90.8364 19.1638C90.8364 18.2724 91.7813 17.9693 92.6191 17.9693C93.1486 17.9563 93.6719 18.0856 94.1344 18.3437C94.0187 19.3448 93.181 20.1063 92.1735 20.1264L92.1378 20.1086ZM99.6968 19.0923L101.604 14.2612H103.458L98.9391 24.7702H97.1564L98.85 21.0176L95.8818 14.2612H97.6645L99.6433 19.0923H99.6968ZM86.6287 21.3907H88.2866V10.2488H86.6287V21.3907ZM34.1316 6.23864H37.2603V5.57904H34.8269V3.88548H37.0196V3.2437H34.8269V1.55014H37.2603V0.890539H34.1316V6.23864ZM39.4706 1.55014H37.9732V0.890539H41.6455V1.55014H40.157V6.23864H39.4706V1.55014ZM44.3106 0.890539H44.9969V6.23864H44.3106V0.890539ZM47.3593 1.55014H45.8619V0.890539H49.5342V1.55014H48.0457V6.23864H47.3593V1.55014ZM61.6839 4.01918V0.890539H62.3703V6.23864H61.6572L58.9386 1.87994H58.9029L58.9386 2.90499V6.23864H58.2522V0.890539H59.0812L61.6839 5.05314H61.7107L61.6839 4.01918Z"
        fill="white"></path>
    <path
        d="M54.5336 0.77531L54.5309 0.875364L54.5351 0.875297L54.5336 0.77531ZM52.5726 1.58644L52.6432 1.65727L52.6451 1.65535L52.5726 1.58644ZM56.4945 1.58644L56.4228 1.65609L56.4232 1.65654L56.4945 1.58644ZM57.2789 3.56524L57.1788 3.56303L57.179 3.56843L57.2789 3.56524ZM56.4945 5.54403L56.4239 5.47323L56.4238 5.47335L56.4945 5.54403ZM52.5726 5.54403L52.6433 5.47335L52.6432 5.47323L52.5726 5.54403ZM51.7882 3.56524L51.8884 3.56844L51.8881 3.56204L51.7882 3.56524ZM55.9514 5.09794L55.8815 5.02642L55.8803 5.0277L55.9514 5.09794ZM56.5843 3.56481L56.4842 3.56178L56.4843 3.56619L56.5843 3.56481ZM55.9871 2.03169L56.0586 1.96184L56.0583 1.96145L55.9871 2.03169ZM53.0813 2.03169L53.0101 1.96145L53.0097 1.96184L53.0813 2.03169ZM52.4841 3.56481L52.5843 3.56957L52.584 3.56178L52.4841 3.56481ZM53.0456 5.09794L52.9724 5.1661L52.9744 5.16817L53.0456 5.09794ZM30.5216 3.37773L30.522 3.27773L30.4216 3.27739V3.37773H30.5216ZM30.5216 4.0195H30.4216V4.1195H30.5216V4.0195ZM33.1511 3.38664L33.2509 3.38064L33.2453 3.28696L33.1515 3.28664L33.1511 3.38664ZM33.1511 3.78775L33.0508 3.78172L33.0512 3.79222L33.1511 3.78775ZM32.4826 5.57045L32.5544 5.64003L32.5549 5.63951L32.4826 5.57045ZM30.5216 6.35484L30.5257 6.25472L30.5194 6.25486L30.5216 6.35484ZM28.5518 5.55262L28.6232 5.48263L28.6214 5.48085L28.5518 5.55262ZM27.7406 3.56491L27.8407 3.56748L27.8406 3.56235L27.7406 3.56491ZM28.5518 1.5772L28.6214 1.64897L28.6216 1.64872L28.5518 1.5772ZM31.618 0.997824L31.579 1.08992L31.58 1.09031L31.618 0.997824ZM32.4559 1.59503L32.5266 1.66574L32.593 1.59935L32.5309 1.52892L32.4559 1.59503ZM31.9835 2.06744L31.9065 2.13132L31.9766 2.21573L32.0542 2.13815L31.9835 2.06744ZM30.5216 1.42567L30.5211 1.52582L30.5267 1.52554L30.5216 1.42567ZM29.0278 2.05313L29.0995 2.12278L29.0278 2.05313ZM28.4448 3.56491L28.545 3.56837L28.5447 3.56146L28.4448 3.56491ZM29.0278 5.0767L29.0995 5.00704L29.0995 5.00704L29.0278 5.0767ZM30.5216 5.70415L30.524 5.60414L30.5211 5.60415L30.5216 5.70415ZM32.0102 5.10695L32.0811 5.17756L32.083 5.1755L32.0102 5.10695ZM32.4648 4.0195L32.5647 4.02316L32.5685 3.9195H32.4648V4.0195ZM33.861 15.2056V15.1056H33.761V15.2056H33.861ZM33.861 16.81H33.761V16.91H33.861V16.81ZM39.2804 15.2056L39.379 15.1886L39.3647 15.1056H39.2804V15.2056ZM39.3606 16.2039L39.2605 16.2029L39.2607 16.207L39.3606 16.2039ZM37.9701 19.9743L38.0421 20.0437L38.0441 20.0416L37.9701 19.9743ZM33.861 21.6233L33.865 21.523L33.8571 21.5233L33.861 21.6233ZM28.568 18.7477L28.654 18.6966L28.568 18.7477ZM28.568 12.7241L28.654 12.7752L28.568 12.7241ZM33.861 9.84854L33.8571 9.94861L33.8626 9.94852L33.861 9.84854ZM37.8988 11.4708L37.9695 11.5415L38.0406 11.4704L37.9691 11.3997L37.8988 11.4708ZM36.7668 12.6028L36.6976 12.675L36.7683 12.7428L36.8375 12.6735L36.7668 12.6028ZM33.8432 11.453V11.553L33.8446 11.553L33.8432 11.453ZM33.8432 20.0099L33.8474 19.9099H33.8432V20.0099ZM36.8203 18.8333L36.8917 18.9034L36.8934 18.9015L36.8203 18.8333ZM37.7116 16.81L37.8113 16.8179L37.8199 16.71H37.7116V16.81ZM43.7374 14.0365L43.7376 14.1365L43.7393 14.1365L43.7374 14.0365ZM39.9492 17.8426L39.8492 17.8428L39.9492 17.8426ZM46.4437 15.1235L46.3732 15.1944L46.4437 15.1235ZM47.5434 17.8248L47.4434 17.8233L47.4434 17.825L47.5434 17.8248ZM43.7552 21.6308L43.755 21.5308L43.7552 21.6308ZM48.2567 17.8426L48.1567 17.8428L48.2567 17.8426ZM52.0449 14.0365L52.0451 14.1365L52.0468 14.1365L52.0449 14.0365ZM55.8509 17.8248L55.7509 17.8233L55.7509 17.825L55.8509 17.8248ZM54.7512 15.1235L54.6807 15.1944L54.7512 15.1235ZM49.8091 18.8228L49.7189 18.8659L49.8091 18.8228ZM52.0446 20.1255L52.0423 20.0255L52.0376 20.0258L52.0446 20.1255ZM50.2004 16.2651L50.1271 16.197L50.2004 16.2651ZM52.7231 15.6903L52.7596 15.5972V15.5972L52.7231 15.6903ZM54.1838 17.8259L54.0837 17.8261L54.084 17.8308L54.1838 17.8259ZM53.5992 19.4269L53.526 19.3588V19.3588L53.5992 19.4269ZM41.5016 18.8228L41.4114 18.8659L41.5016 18.8228ZM43.7371 20.1255L43.7348 20.0255L43.7301 20.0258L43.7371 20.1255ZM44.4156 15.6903L44.4521 15.5972L44.4156 15.6903ZM45.8763 17.8259L45.7762 17.8261L45.7765 17.8308L45.8763 17.8259ZM71.0038 14.0368L71.0075 13.9368L71.004 13.9368L71.0038 14.0368ZM74.2483 16.4523L74.153 16.4848L74.1581 16.4954L74.2483 16.4523ZM68.4005 15.1586L68.3277 15.09L68.4005 15.1586ZM67.4384 17.825L67.5386 17.826L67.5382 17.8188L67.4384 17.825ZM70.1073 21.4663L70.1365 21.3707L70.1073 21.4663ZM74.3553 19.9375L74.4387 19.9926L74.4927 19.9108L74.412 19.8552L74.3553 19.9375ZM73.0628 19.0462L73.1196 18.9639L73.0319 18.9034L72.9771 18.9947L73.0628 19.0462ZM71.1999 20.0891L71.2009 19.9889L71.1958 19.9891L71.1999 20.0891ZM69.3637 18.9392L69.3255 18.8468L69.2313 18.8857L69.272 18.9791L69.3637 18.9392ZM74.4355 16.8445L74.4737 16.937L74.5712 16.8967L74.5257 16.8015L74.4355 16.8445ZM69.0791 17.719L68.9793 17.7255L68.9884 17.865L69.1175 17.8113L69.0791 17.719ZM69.6072 16.1949L69.6816 16.2617L69.6072 16.1949ZM72.4662 16.3106L72.5046 16.403L72.6039 16.3617L72.5556 16.2657L72.4662 16.3106ZM71.0668 15.5084L71.0709 15.6083L71.0732 15.6082L71.0668 15.5084ZM66.6277 21.3907V21.4907H66.7277V21.3907H66.6277ZM64.9608 21.3907H64.8609V21.4907H64.9608V21.3907ZM66.6277 10.2488H66.7277V10.1488H66.6277V10.2488ZM64.9608 10.2488V10.1488H64.8609V10.2488H64.9608ZM62.2336 14.8835V14.9835H62.3336V14.8835H62.2336ZM62.1712 14.8835L62.0976 14.9511L62.1273 14.9835H62.1712V14.8835ZM62.2336 14.2595V14.1595H62.1336V14.2595H62.2336ZM63.7756 14.2595H63.8756V14.1595H63.7756V14.2595ZM60.2102 25.0003V24.9003L60.2089 24.9003L60.2102 25.0003ZM56.8498 22.7541L56.8116 22.6617L56.7204 22.6994L56.7569 22.7911L56.8498 22.7541ZM58.2938 22.1569L58.3871 22.1209L58.3502 22.0253L58.2556 22.0645L58.2938 22.1569ZM60.2102 23.5028L60.208 23.6028H60.2102V23.5028ZM62.2336 20.7307H62.3336V20.6307H62.2336V20.7307ZM62.1712 20.7307V20.6307H62.1253L62.0954 20.6655L62.1712 20.7307ZM60.1746 21.6221L60.1697 21.722L60.1726 21.7221L60.1746 21.6221ZM60.1746 14.0367L60.172 13.9367L60.1697 13.9368L60.1746 14.0367ZM60.3152 20.1259L60.3089 20.2262L60.319 20.2258L60.3152 20.1259ZM60.3152 15.5355L60.3195 15.435L60.309 15.4356L60.3152 15.5355ZM62.3475 17.8262L62.2478 17.8186L62.2471 17.8267L62.2478 17.8347L62.3475 17.8262ZM61.8233 19.4109L61.8983 19.4771L61.8233 19.4109ZM82.0572 10.2512V10.3514L82.0643 10.3509L82.0572 10.2512ZM78.0639 10.2512V10.1511H77.9639V10.2512H78.0639ZM85.2661 11.9046L85.1808 11.9567V11.9567L85.2661 11.9046ZM85.2661 15.5146L85.1808 15.4625V15.4625L85.2661 15.5146ZM82.0572 17.168L82.0643 17.068H82.0572V17.168ZM79.7307 17.168V17.068H79.6307V17.168H79.7307ZM79.7307 21.393V21.493H79.8307V21.393H79.7307ZM78.0639 21.393H77.9639V21.493H78.0639V21.393ZM79.7297 15.5981H79.6297V15.6981H79.7297V15.5981ZM82.0562 15.5981L82.1009 15.5087L82.0798 15.4981H82.0562V15.5981ZM79.7297 11.801V11.701H79.6297V11.801H79.7297ZM82.0918 15.616L82.0471 15.7054L82.0682 15.716H82.0918V15.616ZM92.3429 14.0023L92.3876 13.9129L92.3694 13.9038L92.3491 13.9025L92.3429 14.0023ZM89.3747 15.7048L89.2855 15.6597L89.237 15.7556L89.3361 15.7971L89.3747 15.7048ZM92.3786 14.0202L92.3339 14.1096L92.355 14.1202H92.3786V14.0202ZM95.7568 21.3916V21.4916H95.8568V21.3916H95.7568ZM94.1524 21.3916H94.0524V21.4916H94.1524V21.3916ZM94.1524 20.5003H94.2524V20.4003H94.1524V20.5003ZM94.0989 20.5003V20.4003H94.0441L94.0146 20.4465L94.0989 20.5003ZM91.9775 21.5877L91.983 21.487L91.9698 21.488L91.9775 21.5877ZM90.0723 20.9492L90.0061 21.0241L90.0723 20.9492ZM89.2054 19.1365H89.1053L89.1055 19.141L89.2054 19.1365ZM92.4142 16.6229V16.7229H92.4144L92.4142 16.6229ZM94.1524 17.0507L94.1058 17.1393L94.2524 17.2163V17.0507H94.1524ZM94.1524 16.9438H94.2529L94.2519 16.9339L94.1524 16.9438ZM93.5619 15.8525L93.4992 15.9304L93.5619 15.8525ZM92.3697 15.5087L92.361 15.6083L92.3712 15.6092L92.3813 15.608L92.3697 15.5087ZM90.8455 16.3198L90.8069 16.4121L90.8895 16.4466L90.9329 16.3683L90.8455 16.3198ZM92.1378 20.1086L92.1825 20.0191L92.1614 20.0086H92.1378V20.1086ZM92.6191 17.9693V18.0694L92.6216 18.0693L92.6191 17.9693ZM94.1344 18.3437L94.2338 18.3552L94.2414 18.2889L94.1832 18.2564L94.1344 18.3437ZM92.1735 20.1264L92.1287 20.2159L92.1508 20.2269L92.1755 20.2264L92.1735 20.1264ZM101.604 14.2612V14.1612H101.536L101.511 14.2245L101.604 14.2612ZM99.6968 19.0923V19.1923H99.7648L99.7898 19.129L99.6968 19.0923ZM103.458 14.2612L103.55 14.3007L103.61 14.1612H103.458V14.2612ZM98.9391 24.7702V24.8702H99.005L99.031 24.8097L98.9391 24.7702ZM97.1564 24.7702L97.0653 24.7291L97.0016 24.8702H97.1564V24.7702ZM98.85 21.0176L98.9411 21.0588L98.9594 21.0182L98.9415 20.9774L98.85 21.0176ZM95.8818 14.2612V14.1612H95.7286L95.7902 14.3014L95.8818 14.2612ZM97.6645 14.2612L97.757 14.2233L97.7316 14.1612H97.6645V14.2612ZM99.6433 19.0923L99.5508 19.1302L99.5762 19.1923H99.6433V19.0923ZM88.2866 21.3907V21.4907H88.3866V21.3907H88.2866ZM86.6287 21.3907H86.5287V21.4907H86.6287V21.3907ZM88.2866 10.2488H88.3866V10.1488H88.2866V10.2488ZM86.6287 10.2488V10.1488H86.5287V10.2488H86.6287ZM37.2603 6.23864V6.33864H37.3603V6.23864H37.2603ZM34.1316 6.23864H34.0316V6.33864H34.1316V6.23864ZM37.2603 5.57904H37.3603V5.47904H37.2603V5.57904ZM34.8269 5.57904H34.7269V5.67904H34.8269V5.57904ZM34.8269 3.88548V3.78548H34.7269V3.88548H34.8269ZM37.0196 3.88548V3.98548H37.1196V3.88548H37.0196ZM37.0196 3.2437H37.1196V3.1437H37.0196V3.2437ZM34.8269 3.2437H34.7269V3.3437H34.8269V3.2437ZM34.8269 1.55014V1.45014H34.7269V1.55014H34.8269ZM37.2603 1.55014V1.65014H37.3603V1.55014H37.2603ZM37.2603 0.890539H37.3603V0.790539H37.2603V0.890539ZM34.1316 0.890539V0.790539H34.0316V0.890539H34.1316ZM37.9732 1.55014H37.8732V1.65014H37.9732V1.55014ZM39.4706 1.55014H39.5706V1.45014H39.4706V1.55014ZM37.9732 0.890539V0.790539H37.8732V0.890539H37.9732ZM41.6455 0.890539H41.7455V0.790539H41.6455V0.890539ZM41.6455 1.55014V1.65014H41.7455V1.55014H41.6455ZM40.157 1.55014V1.45014H40.057V1.55014H40.157ZM40.157 6.23864V6.33864H40.257V6.23864H40.157ZM39.4706 6.23864H39.3706V6.33864H39.4706V6.23864ZM44.9969 0.890539H45.0969V0.790539H44.9969V0.890539ZM44.3106 0.890539V0.790539H44.2106V0.890539H44.3106ZM44.9969 6.23864V6.33864H45.0969V6.23864H44.9969ZM44.3106 6.23864H44.2106V6.33864H44.3106V6.23864ZM45.8619 1.55014H45.7619V1.65014H45.8619V1.55014ZM47.3593 1.55014H47.4593V1.45014H47.3593V1.55014ZM45.8619 0.890539V0.790539H45.7619V0.890539H45.8619ZM49.5342 0.890539H49.6342V0.790539H49.5342V0.890539ZM49.5342 1.55014V1.65014H49.6342V1.55014H49.5342ZM48.0457 1.55014V1.45014H47.9457V1.55014H48.0457ZM48.0457 6.23864V6.33864H48.1457V6.23864H48.0457ZM47.3593 6.23864H47.2593V6.33864H47.3593V6.23864ZM61.6839 0.890539V0.790539H61.5839V0.890539H61.6839ZM61.6839 4.01918H61.5839L61.5839 4.02176L61.6839 4.01918ZM62.3703 0.890539H62.4702V0.790539H62.3703V0.890539ZM62.3703 6.23864V6.33864H62.4702V6.23864H62.3703ZM61.6572 6.23864L61.5723 6.29156L61.6017 6.33864H61.6572V6.23864ZM58.9386 1.87994L59.0234 1.82702L58.994 1.77994H58.9386V1.87994ZM58.9029 1.87994V1.77994H58.7994L58.803 1.88341L58.9029 1.87994ZM58.9386 2.90499H59.0386L59.0385 2.90151L58.9386 2.90499ZM58.9386 6.23864V6.33864H59.0386V6.23864H58.9386ZM58.2522 6.23864H58.1522V6.33864H58.2522V6.23864ZM58.2522 0.890539V0.790539H58.1522V0.890539H58.2522ZM59.0812 0.890539L59.166 0.837522L59.1366 0.790539H59.0812V0.890539ZM61.6839 5.05314L61.5991 5.10616L61.6285 5.15314H61.6839V5.05314ZM61.7107 5.05314V5.15314H61.8133L61.8106 5.05056L61.7107 5.05314ZM54.5362 0.675344C53.7689 0.65526 53.029 0.961293 52.5001 1.51753L52.6451 1.65535C53.135 1.14013 53.8202 0.856673 54.5309 0.875275L54.5362 0.675344ZM56.5663 1.51678C56.0333 0.967718 55.2971 0.663219 54.532 0.675322L54.5351 0.875297C55.2451 0.864066 55.9282 1.14661 56.4228 1.65609L56.5663 1.51678ZM57.3789 3.56744C57.3958 2.80203 57.1026 2.06229 56.5658 1.51633L56.4232 1.65654C56.9221 2.16401 57.1947 2.85159 57.1789 3.56303L57.3789 3.56744ZM56.5651 5.61484C57.1088 5.07267 57.4034 4.32943 57.3789 3.56204L57.179 3.56843C57.2017 4.28049 56.9284 4.97014 56.4239 5.47323L56.5651 5.61484ZM54.5336 6.45676C55.2957 6.45676 56.0266 6.15385 56.5653 5.61472L56.4238 5.47335C55.9226 5.97494 55.2426 6.25676 54.5336 6.25676V6.45676ZM52.5018 5.61472C53.0405 6.15385 53.7714 6.45676 54.5336 6.45676V6.25676C53.8245 6.25676 53.1445 5.97494 52.6433 5.47335L52.5018 5.61472ZM51.6882 3.56204C51.6637 4.32943 51.9583 5.07267 52.502 5.61484L52.6432 5.47323C52.1388 4.97014 51.8654 4.28049 51.8881 3.56843L51.6882 3.56204ZM52.502 1.51563C51.9583 2.05781 51.6637 2.80104 51.6882 3.56843L51.8881 3.56204C51.8654 2.84998 52.1388 2.16033 52.6432 1.65724L52.502 1.51563ZM55.8803 5.0277C55.5155 5.39733 55.0178 5.60541 54.4985 5.60541V5.80541C55.0713 5.80541 55.6203 5.5759 56.0226 5.16817L55.8803 5.0277ZM56.4843 3.56619C56.4918 4.11495 56.274 4.64278 55.8815 5.02643L56.0213 5.16944C56.4529 4.74749 56.6926 4.16697 56.6843 3.56344L56.4843 3.56619ZM55.9155 2.10154C56.2955 2.49087 56.5008 3.01799 56.4843 3.56178L56.6842 3.56785C56.7024 2.96978 56.4766 2.39004 56.0586 1.96184L55.9155 2.10154ZM54.5342 1.52421C55.0535 1.52421 55.5511 1.73229 55.9159 2.10193L56.0583 1.96145C55.6559 1.55373 55.107 1.32421 54.5342 1.32421V1.52421ZM53.1525 2.10193C53.5172 1.73229 54.0149 1.52421 54.5342 1.52421V1.32421C53.9614 1.32421 53.4124 1.55373 53.0101 1.96145L53.1525 2.10193ZM52.584 3.56178C52.5675 3.01799 52.7729 2.49087 53.1528 2.10154L53.0097 1.96184C52.5918 2.39004 52.366 2.96978 52.3841 3.56785L52.584 3.56178ZM53.1188 5.0298C52.7512 4.63491 52.5584 4.10846 52.584 3.56956L52.3842 3.56007C52.356 4.15277 52.5681 4.73177 52.9724 5.16607L53.1188 5.0298ZM54.4985 5.60541C53.9792 5.60541 53.4816 5.39733 53.1168 5.0277L52.9744 5.16817C53.3768 5.5759 53.9257 5.80541 54.4985 5.80541V5.60541ZM30.4216 3.37773V4.0195H30.6216V3.37773H30.4216ZM33.1515 3.28664L30.522 3.27773L30.5213 3.47773L33.1508 3.48664L33.1515 3.28664ZM33.2509 3.79375C33.2592 3.65617 33.2592 3.51822 33.2509 3.38064L33.0513 3.39264C33.0591 3.52223 33.0591 3.65216 33.0513 3.78175L33.2509 3.79375ZM32.5549 5.63951C33.0304 5.14157 33.2818 4.47105 33.251 3.78328L33.0512 3.79222C33.0796 4.42551 32.8481 5.0429 32.4103 5.50139L32.5549 5.63951ZM30.5176 6.45476C31.2816 6.48559 32.0225 6.18924 32.5544 5.64002L32.4108 5.50088C31.9184 6.00918 31.2327 6.28346 30.5257 6.25492L30.5176 6.45476ZM28.4803 5.6226C29.0171 6.17063 29.7569 6.47191 30.5239 6.45481L30.5194 6.25486C29.8078 6.27072 29.1213 5.99117 28.6232 5.48265L28.4803 5.6226ZM27.6407 3.56235C27.6208 4.33706 27.9259 5.08476 28.4821 5.62439L28.6214 5.48085C28.1053 4.98012 27.8222 4.28633 27.8406 3.56747L27.6407 3.56235ZM28.4821 1.50543C27.9259 2.04507 27.6208 2.79276 27.6407 3.56747L27.8406 3.56235C27.8222 2.84349 28.1053 2.1497 28.6214 1.64897L28.4821 1.50543ZM31.657 0.90573C30.5744 0.447606 29.3226 0.684133 28.4819 1.50568L28.6216 1.64872C29.4048 0.883514 30.5707 0.663206 31.579 1.08992L31.657 0.90573ZM32.5309 1.52892C32.291 1.25666 31.9916 1.04329 31.656 0.905333L31.58 1.09031C31.8872 1.2166 32.1612 1.41192 32.3808 1.66114L32.5309 1.52892ZM32.0542 2.13815L32.5266 1.66574L32.3852 1.52432L31.9127 1.99673L32.0542 2.13815ZM30.5267 1.52554C31.0564 1.49873 31.5677 1.72322 31.9065 2.13132L32.0604 2.00357C31.6814 1.54697 31.1092 1.2958 30.5166 1.3258L30.5267 1.52554ZM29.0995 2.12278C29.4724 1.73865 29.9858 1.52304 30.5211 1.52567L30.5221 1.32567C29.9323 1.32278 29.3668 1.5603 28.956 1.98347L29.0995 2.12278ZM28.5447 3.56146C28.5263 3.0264 28.7266 2.50691 29.0995 2.12278L28.956 1.98347C28.5452 2.40664 28.3245 2.97892 28.3449 3.56836L28.5447 3.56146ZM29.0995 5.00704C28.7266 4.62291 28.5263 4.10342 28.5447 3.56836L28.3449 3.56146C28.3245 4.1509 28.5452 4.72318 28.956 5.14635L29.0995 5.00704ZM30.5211 5.60415C29.9858 5.60678 29.4724 5.39117 29.0995 5.00704L28.956 5.14635C29.3668 5.56952 29.9323 5.80705 30.5221 5.80415L30.5211 5.60415ZM31.9394 5.03636C31.5654 5.41167 31.0537 5.61695 30.524 5.60418L30.5192 5.80412C31.1037 5.81821 31.6683 5.59168 32.081 5.17753L31.9394 5.03636ZM32.3648 4.01584C32.3509 4.39721 32.199 4.76055 31.9374 5.0384L32.083 5.1755C32.3778 4.86239 32.549 4.45293 32.5647 4.02316L32.3648 4.01584ZM30.5216 4.1195H32.4648V3.9195H30.5216V4.1195ZM33.761 15.2056V16.81H33.961V15.2056H33.761ZM39.2804 15.1056H33.861V15.3056H39.2804V15.1056ZM39.4606 16.2048C39.4639 15.8643 39.4365 15.5242 39.379 15.1886L39.1818 15.2225C39.2374 15.5463 39.2638 15.8744 39.2606 16.2029L39.4606 16.2048ZM38.0441 20.0416C38.9976 18.9941 39.5057 17.6164 39.4606 16.2007L39.2607 16.207C39.3041 17.5708 38.8147 18.8979 37.8962 19.907L38.0441 20.0416ZM33.857 21.7232C35.4277 21.7859 36.9504 21.1749 38.0421 20.0437L37.8982 19.9048C36.8462 20.9949 35.3787 21.5838 33.865 21.5234L33.857 21.7232ZM28.4821 18.7988C29.6048 20.6865 31.6703 21.8086 33.8649 21.7232L33.8571 21.5233C31.7357 21.6059 29.7392 20.5212 28.654 18.6966L28.4821 18.7988ZM28.4821 12.673C27.3594 14.5606 27.3594 16.9112 28.4821 18.7988L28.654 18.6966C27.5687 16.872 27.5687 14.5998 28.654 12.7752L28.4821 12.673ZM33.8649 9.74861C31.6702 9.6632 29.6048 10.7853 28.4821 12.673L28.654 12.7752C29.7392 10.9506 31.7357 9.8659 33.8571 9.94846L33.8649 9.74861ZM37.9691 11.3997C36.8768 10.3193 35.3955 9.72421 33.8594 9.74855L33.8626 9.94852C35.345 9.92504 36.7744 10.4993 37.8285 11.5419L37.9691 11.3997ZM36.8375 12.6735L37.9695 11.5415L37.8281 11.4001L36.6961 12.5321L36.8375 12.6735ZM33.8446 11.553C34.9062 11.5372 35.9312 11.9403 36.6976 12.675L36.836 12.5306C36.0316 11.7595 34.9558 11.3364 33.8417 11.353L33.8446 11.553ZM29.6647 15.7314C29.6647 13.4237 31.5354 11.553 33.8432 11.553V11.353C31.425 11.353 29.4647 13.3133 29.4647 15.7314H29.6647ZM33.8432 19.9099C31.5354 19.9099 29.6647 18.0392 29.6647 15.7314H29.4647C29.4647 18.1496 31.425 20.1099 33.8432 20.1099V19.9099ZM36.7489 18.7633C35.9876 19.539 34.9332 19.9556 33.8474 19.91L33.839 20.1098C34.9814 20.1578 36.0907 19.7194 36.8916 18.9034L36.7489 18.7633ZM37.6119 16.802C37.5534 17.5352 37.2486 18.2271 36.7471 18.7652L36.8934 18.9015C37.4256 18.3304 37.7491 17.5961 37.8113 16.8179L37.6119 16.802ZM33.861 16.91H37.7116V16.71H33.861V16.91ZM43.7371 13.9365C41.5848 13.9416 39.8441 15.6905 39.8492 17.8428L40.0492 17.8424C40.0444 15.8005 41.6957 14.1413 43.7376 14.1365L43.7371 13.9365ZM46.5143 15.0527C45.7776 14.3194 44.7747 13.9166 43.7355 13.9365L43.7393 14.1365C44.7244 14.1176 45.6749 14.4994 46.3732 15.1944L46.5143 15.0527ZM47.6434 17.8262C47.6585 16.7869 47.251 15.7859 46.5143 15.0527L46.3732 15.1944C47.0715 15.8894 47.4577 16.8382 47.4435 17.8233L47.6434 17.8262ZM43.7554 21.7308C45.9078 21.7258 47.6485 19.9769 47.6434 17.8245L47.4434 17.825C47.4482 19.8669 45.7969 21.526 43.755 21.5308L43.7554 21.7308ZM39.8492 17.8428C39.8542 19.9952 41.6031 21.7359 43.7554 21.7308L43.755 21.5308C41.7131 21.5356 40.054 19.8842 40.0492 17.8424L39.8492 17.8428ZM48.3567 17.8424C48.3519 15.8005 50.0032 14.1413 52.0451 14.1365L52.0446 13.9365C49.8923 13.9416 48.1516 15.6905 48.1567 17.8428L48.3567 17.8424ZM52.0625 21.5308C50.0206 21.5356 48.3615 19.8842 48.3567 17.8424L48.1567 17.8428C48.1617 19.9952 49.9106 21.7359 52.0629 21.7308L52.0625 21.5308ZM55.7509 17.825C55.7557 19.8669 54.1044 21.526 52.0625 21.5308L52.0629 21.7308C54.2153 21.7258 55.956 19.9769 55.9509 17.8245L55.7509 17.825ZM54.6807 15.1944C55.379 15.8894 55.7652 16.8382 55.751 17.8233L55.9509 17.8262C55.966 16.7869 55.5585 15.7859 54.8218 15.0527L54.6807 15.1944ZM52.0468 14.1365C53.0319 14.1176 53.9824 14.4994 54.6807 15.1944L54.8218 15.0527C54.0851 14.3194 53.0822 13.9166 52.043 13.9365L52.0468 14.1365ZM49.7189 18.8659C50.1436 19.755 51.0687 20.294 52.0516 20.2253L52.0376 20.0258C51.1366 20.0888 50.2887 19.5946 49.8993 18.7797L49.7189 18.8659ZM50.1271 16.197C49.456 16.9185 49.2941 17.9768 49.7189 18.8659L49.8993 18.7797C49.51 17.9647 49.6584 16.9946 50.2736 16.3333L50.1271 16.197ZM52.7596 15.5972C51.8421 15.2377 50.7982 15.4756 50.1271 16.197L50.2736 16.3333C50.8887 15.6719 51.8456 15.4539 52.6866 15.7834L52.7596 15.5972ZM54.2838 17.8256C54.2814 16.8403 53.677 15.9566 52.7596 15.5972L52.6866 15.7834C53.5275 16.1129 54.0816 16.9229 54.0838 17.8261L54.2838 17.8256ZM53.6724 19.495C54.0936 19.0422 54.314 18.4386 54.2837 17.821L54.084 17.8308C54.1116 18.3945 53.9104 18.9455 53.526 19.3588L53.6724 19.495ZM52.0469 20.2255C52.6651 20.2112 53.2513 19.9477 53.6724 19.495L53.526 19.3588C53.1416 19.772 52.6065 20.0125 52.0423 20.0256L52.0469 20.2255ZM41.4114 18.8659C41.8361 19.755 42.7612 20.294 43.7441 20.2253L43.7301 20.0258C42.8291 20.0888 41.9812 19.5946 41.5918 18.7797L41.4114 18.8659ZM41.8196 16.197C41.1485 16.9185 40.9866 17.9768 41.4114 18.8659L41.5918 18.7797C41.2025 17.9647 41.3509 16.9946 41.9661 16.3333L41.8196 16.197ZM44.4521 15.5972C43.5346 15.2377 42.4907 15.4756 41.8196 16.197L41.9661 16.3333C42.5812 15.6719 43.5381 15.4539 44.3791 15.7834L44.4521 15.5972ZM45.9763 17.8256C45.9739 16.8403 45.3695 15.9566 44.4521 15.5972L44.3791 15.7834C45.2201 16.1129 45.7741 16.9229 45.7763 17.8261L45.9763 17.8256ZM45.365 19.495C45.7861 19.0422 46.0065 18.4386 45.9762 17.821L45.7765 17.8308C45.8041 18.3945 45.6029 18.9455 45.2185 19.3588L45.365 19.495ZM43.7394 20.2255C44.3576 20.2112 44.9438 19.9477 45.365 19.495L45.2185 19.3588C44.8341 19.772 44.299 20.0125 43.7348 20.0256L43.7394 20.2255ZM71.0001 14.1367C72.4365 14.1896 73.6911 15.1237 74.1536 16.4845L74.343 16.4202C73.8537 14.9808 72.5267 13.9928 71.0075 13.9369L71.0001 14.1367ZM68.4733 15.2271C69.1298 14.5296 70.0457 14.1349 71.0036 14.1368L71.004 13.9368C69.9908 13.9348 69.0221 14.3523 68.3277 15.09L68.4733 15.2271ZM67.5382 17.8188C67.4783 16.8628 67.8168 15.9246 68.4733 15.2271L68.3277 15.09C67.6333 15.8278 67.2753 16.8201 67.3386 17.8313L67.5382 17.8188ZM70.1365 21.3707C68.5806 20.8955 67.5231 19.4528 67.5384 17.826L67.3384 17.8241C67.3223 19.5395 68.4374 21.0609 70.0781 21.562L70.1365 21.3707ZM74.2718 19.8824C73.3755 21.2402 71.6925 21.8459 70.1365 21.3707L70.0781 21.562C71.7188 22.063 73.4936 21.4243 74.4387 19.9926L74.2718 19.8824ZM73.006 19.1285L74.2985 20.0198L74.412 19.8552L73.1196 18.9639L73.006 19.1285ZM71.1989 20.189C71.9964 20.1968 72.7383 19.7815 73.1486 19.0976L72.9771 18.9947C72.6033 19.6178 71.9274 19.9961 71.2009 19.9891L71.1989 20.189ZM69.272 18.9791C69.6044 19.7427 70.372 20.2233 71.204 20.189L71.1958 19.9891C70.4462 20.0201 69.7548 19.5871 69.4554 18.8993L69.272 18.9791ZM74.3973 16.7521L69.3255 18.8468L69.4019 19.0316L74.4737 16.937L74.3973 16.7521ZM74.1581 16.4954L74.3452 16.8876L74.5257 16.8015L74.3386 16.4093L74.1581 16.4954ZM69.1789 17.7124C69.1442 17.1809 69.3254 16.6578 69.6816 16.2617L69.5329 16.128C69.1407 16.5642 68.9411 17.1402 68.9793 17.7255L69.1789 17.7124ZM72.4279 16.2183L69.0407 17.6266L69.1175 17.8113L72.5046 16.403L72.4279 16.2183ZM71.0732 15.6082C71.6183 15.5733 72.1315 15.8675 72.3769 16.3555L72.5556 16.2657C72.2742 15.706 71.6856 15.3686 71.0604 15.4086L71.0732 15.6082ZM69.6816 16.2617C70.0377 15.8656 70.5387 15.63 71.0709 15.6083L71.0627 15.4085C70.4767 15.4324 69.9251 15.6918 69.5329 16.128L69.6816 16.2617ZM66.6277 21.2907H64.9608V21.4907H66.6277V21.2907ZM66.5277 10.2488V21.3907H66.7277V10.2488H66.5277ZM64.9608 10.3488H66.6277V10.1488H64.9608V10.3488ZM65.0608 21.3907V10.2488H64.8609V21.3907H65.0608ZM62.2336 14.7835H62.1712V14.9835H62.2336V14.7835ZM62.1336 14.2595V14.8835H62.3336V14.2595H62.1336ZM63.7756 14.1595H62.2336V14.3595H63.7756V14.1595ZM63.8756 21.0516V14.2595H63.6756V21.0516H63.8756ZM60.2102 25.1003C61.2054 25.1003 62.1245 24.807 62.7951 24.1468C63.4663 23.486 63.8756 22.4704 63.8756 21.0516H63.6756C63.6756 22.4317 63.2783 23.3904 62.6548 24.0043C62.0307 24.6187 61.1671 24.9003 60.2102 24.9003V25.1003ZM56.7569 22.7911C57.3188 24.2023 58.6928 25.1207 60.2116 25.1003L60.2089 24.9003C58.773 24.9196 57.4739 24.0513 56.9427 22.7171L56.7569 22.7911ZM58.2556 22.0645L56.8116 22.6617L56.888 22.8465L58.332 22.2493L58.2556 22.0645ZM60.2124 23.4029C59.4004 23.385 58.6795 22.8787 58.3871 22.1209L58.2005 22.1929C58.522 23.0263 59.3149 23.5832 60.208 23.6028L60.2124 23.4029ZM62.1336 21.2745C62.1336 21.9838 61.9444 22.5136 61.6167 22.8653C61.2898 23.2161 60.813 23.4028 60.2102 23.4028V23.6028C60.8553 23.6028 61.3902 23.4018 61.763 23.0017C62.135 22.6024 62.3336 22.018 62.3336 21.2745H62.1336ZM62.1336 20.7307V21.2745H62.3336V20.7307H62.1336ZM62.1712 20.8307H62.2336V20.6307H62.1712V20.8307ZM60.1726 21.7221C60.9675 21.738 61.7281 21.3985 62.247 20.796L62.0954 20.6655C61.6155 21.2228 60.9119 21.5369 60.1766 21.5221L60.1726 21.7221ZM56.4613 17.8294C56.4613 19.9083 58.0932 21.6213 60.1697 21.722L60.1794 21.5222C58.2095 21.4267 56.6613 19.8017 56.6613 17.8294H56.4613ZM60.1697 13.9368C58.0932 14.0375 56.4613 15.7504 56.4613 17.8294H56.6613C56.6613 15.8571 58.2095 14.2321 60.1794 14.1366L60.1697 13.9368ZM62.2448 14.8158C61.7133 14.2372 60.9575 13.9167 60.172 13.9367L60.1771 14.1367C60.9048 14.1181 61.6051 14.4151 62.0976 14.9511L62.2448 14.8158ZM58.0586 17.8307C58.0586 19.098 59.0441 20.1469 60.309 20.2257L60.3214 20.0261C59.162 19.9538 58.2586 18.9924 58.2586 17.8307H58.0586ZM60.309 15.4356C59.0441 15.5145 58.0586 16.5634 58.0586 17.8307H58.2586C58.2586 16.669 59.162 15.7075 60.3214 15.6353L60.309 15.4356ZM61.8917 16.1837C61.4907 15.7316 60.9233 15.4616 60.3195 15.4355L60.3109 15.6354C60.8605 15.6591 61.377 15.9048 61.7421 16.3164L61.8917 16.1837ZM62.4472 17.8338C62.4932 17.2312 62.2928 16.6358 61.8917 16.1837L61.7421 16.3164C62.1072 16.7279 62.2897 17.27 62.2478 17.8186L62.4472 17.8338ZM61.8983 19.4771C62.3002 19.0222 62.4986 18.4226 62.4471 17.8177L62.2478 17.8347C62.2947 18.3851 62.1142 18.9307 61.7484 19.3446L61.8983 19.4771ZM60.319 20.2258C60.9256 20.2025 61.4963 19.932 61.8983 19.4771L61.7484 19.3446C61.3826 19.7586 60.8633 20.0048 60.3113 20.026L60.319 20.2258ZM82.0572 10.1511H78.0639V10.3512H82.0572V10.1511ZM85.3515 11.8526C84.6562 10.7122 83.3822 10.0557 82.05 10.1514L82.0643 10.3509C83.3218 10.2606 84.5245 10.8802 85.1808 11.9567L85.3515 11.8526ZM85.3515 15.5666C86.0468 14.4262 86.0468 12.993 85.3515 11.8526L85.1808 11.9567C85.8371 13.0331 85.8371 14.386 85.1808 15.4625L85.3515 15.5666ZM82.05 17.2678C83.3822 17.3635 84.6562 16.707 85.3515 15.5666L85.1808 15.4625C84.5245 16.539 83.3218 17.1586 82.0643 17.0683L82.05 17.2678ZM79.7307 17.268H82.0572V17.068H79.7307V17.268ZM79.8307 21.393V17.168H79.6307V21.393H79.8307ZM78.0639 21.493H79.7307V21.293H78.0639V21.493ZM77.9639 10.2512V21.393H78.1639V10.2512H77.9639ZM79.7297 15.6981H82.0562V15.4981H79.7297V15.6981ZM79.6297 11.801V15.5981H79.8297V11.801H79.6297ZM82.0918 11.701H79.7297V11.901H82.0918V11.701ZM84.0993 13.7085C84.0993 12.5998 83.2005 11.701 82.0918 11.701V11.901C83.0901 11.901 83.8993 12.7102 83.8993 13.7085H84.0993ZM82.0918 15.716C83.2005 15.716 84.0993 14.8172 84.0993 13.7085H83.8993C83.8993 14.7067 83.0901 15.516 82.0918 15.516V15.716ZM82.0114 15.6876L82.0471 15.7054L82.1365 15.5265L82.1009 15.5087L82.0114 15.6876ZM92.3491 13.9025C91.0685 13.8236 89.8639 14.5145 89.2855 15.6597L89.464 15.7499C90.0064 14.676 91.136 14.0281 92.3368 14.1021L92.3491 13.9025ZM92.4233 13.9307L92.3876 13.9129L92.2982 14.0918L92.3339 14.1096L92.4233 13.9307ZM95.8568 17.1042C95.8568 16.1009 95.4756 15.3017 94.8452 14.7546C94.2164 14.2089 93.3471 13.9202 92.3786 13.9202V14.1202C93.3086 14.1202 94.1284 14.3974 94.7141 14.9057C95.2982 15.4126 95.6568 16.1555 95.6568 17.1042H95.8568ZM95.8568 21.3916V17.1042H95.6568V21.3916H95.8568ZM94.1524 21.4916H95.7568V21.2916H94.1524V21.4916ZM94.0524 20.5003V21.3916H94.2524V20.5003H94.0524ZM94.0989 20.6003H94.1524V20.4003H94.0989V20.6003ZM91.9719 21.6876C92.8596 21.7367 93.7048 21.3034 94.1832 20.5541L94.0146 20.4465C93.5751 21.1349 92.7985 21.533 91.983 21.4879L91.9719 21.6876ZM90.0061 21.0241C90.5488 21.504 91.2629 21.7433 91.9852 21.6874L91.9698 21.488C91.3014 21.5397 90.6407 21.3183 90.1386 20.8743L90.0061 21.0241ZM89.1055 19.141C89.1384 19.8648 89.4634 20.5442 90.0061 21.0241L90.1386 20.8743C89.6364 20.4302 89.3357 19.8016 89.3053 19.132L89.1055 19.141ZM92.4142 16.5229C91.6039 16.5229 90.7807 16.7502 90.1572 17.1896C89.5315 17.6306 89.1054 18.2874 89.1054 19.1365H89.3054C89.3054 18.3634 89.6903 17.7634 90.2724 17.3531C90.8568 16.9412 91.638 16.7229 92.4142 16.7229V16.5229ZM94.1989 16.9622C93.6485 16.6729 93.0359 16.5221 92.4141 16.5229L92.4144 16.7229C93.0036 16.7222 93.5842 16.8651 94.1058 17.1393L94.1989 16.9622ZM94.0524 16.9438V17.0507H94.2524V16.9438H94.0524ZM93.4992 15.9304C93.8135 16.1834 94.013 16.5521 94.0528 16.9537L94.2519 16.9339C94.2067 16.479 93.9807 16.0613 93.6246 15.7746L93.4992 15.9304ZM92.3813 15.608C92.7821 15.5612 93.1848 15.6774 93.4992 15.9304L93.6246 15.7746C93.2685 15.4879 92.8121 15.3564 92.3581 15.4094L92.3813 15.608ZM90.9329 16.3683C91.2174 15.8555 91.7768 15.5578 92.361 15.6083L92.3783 15.4091C91.7154 15.3517 91.0807 15.6895 90.758 16.2713L90.9329 16.3683ZM89.3361 15.7971L90.8069 16.4121L90.884 16.2276L89.4133 15.6125L89.3361 15.7971ZM90.7364 19.1638C90.7364 19.5431 90.954 19.8078 91.2322 19.9729C91.508 20.1364 91.8518 20.2086 92.1378 20.2086V20.0086C91.8801 20.0086 91.5732 19.9426 91.3342 19.8009C91.0978 19.6606 90.9364 19.4529 90.9364 19.1638H90.7364ZM92.6191 17.8693C92.1907 17.8693 91.7265 17.9464 91.3655 18.1446C90.9996 18.3455 90.7364 18.6742 90.7364 19.1638H90.9364C90.9364 18.762 91.1457 18.4935 91.4617 18.32C91.7826 18.1438 92.2097 18.0693 92.6191 18.0693V17.8693ZM94.1832 18.2564C93.7051 17.9895 93.1641 17.8559 92.6167 17.8694L92.6216 18.0693C93.1332 18.0567 93.6388 18.1816 94.0857 18.431L94.1832 18.2564ZM92.1755 20.2264C93.233 20.2053 94.1123 19.406 94.2338 18.3552L94.0351 18.3322C93.9251 19.2836 93.129 20.0073 92.1715 20.0264L92.1755 20.2264ZM92.0931 20.198L92.1287 20.2159L92.2182 20.037L92.1825 20.0191L92.0931 20.198ZM101.511 14.2245L99.6038 19.0556L99.7898 19.129L101.697 14.2979L101.511 14.2245ZM103.458 14.1612H101.604V14.3612H103.458V14.1612ZM99.031 24.8097L103.55 14.3007L103.366 14.2217L98.8473 24.7307L99.031 24.8097ZM97.1564 24.8702H98.9391V24.6702H97.1564V24.8702ZM98.7588 20.9765L97.0653 24.7291L97.2476 24.8114L98.9411 21.0588L98.7588 20.9765ZM95.7902 14.3014L98.7584 21.0579L98.9415 20.9774L95.9733 14.221L95.7902 14.3014ZM97.6645 14.1612H95.8818V14.3612H97.6645V14.1612ZM99.7358 19.0544L97.757 14.2233L97.572 14.2991L99.5508 19.1302L99.7358 19.0544ZM99.6968 18.9923H99.6433V19.1923H99.6968V18.9923ZM88.2866 21.2907H86.6287V21.4907H88.2866V21.2907ZM88.1866 10.2488V21.3907H88.3866V10.2488H88.1866ZM86.6287 10.3488H88.2866V10.1488H86.6287V10.3488ZM86.7287 21.3907V10.2488H86.5287V21.3907H86.7287ZM37.2603 6.13864H34.1316V6.33864H37.2603V6.13864ZM37.1603 5.57904V6.23864H37.3603V5.57904H37.1603ZM34.8269 5.67904H37.2603V5.47904H34.8269V5.67904ZM34.7269 3.88548V5.57904H34.9269V3.88548H34.7269ZM37.0196 3.78548H34.8269V3.98548H37.0196V3.78548ZM36.9196 3.2437V3.88548H37.1196V3.2437H36.9196ZM34.8269 3.3437H37.0196V3.1437H34.8269V3.3437ZM34.7269 1.55014V3.2437H34.9269V1.55014H34.7269ZM37.2603 1.45014H34.8269V1.65014H37.2603V1.45014ZM37.1603 0.890539V1.55014H37.3603V0.890539H37.1603ZM34.1316 0.990539H37.2603V0.790539H34.1316V0.990539ZM34.2316 6.23864V0.890539H34.0316V6.23864H34.2316ZM37.9732 1.65014H39.4706V1.45014H37.9732V1.65014ZM37.8732 0.890539V1.55014H38.0732V0.890539H37.8732ZM41.6455 0.790539H37.9732V0.990539H41.6455V0.790539ZM41.7455 1.55014V0.890539H41.5455V1.55014H41.7455ZM40.157 1.65014H41.6455V1.45014H40.157V1.65014ZM40.257 6.23864V1.55014H40.057V6.23864H40.257ZM39.4706 6.33864H40.157V6.13864H39.4706V6.33864ZM39.3706 1.55014V6.23864H39.5706V1.55014H39.3706ZM44.9969 0.790539H44.3106V0.990539H44.9969V0.790539ZM45.0969 6.23864V0.890539H44.8969V6.23864H45.0969ZM44.3106 6.33864H44.9969V6.13864H44.3106V6.33864ZM44.2106 0.890539V6.23864H44.4106V0.890539H44.2106ZM45.8619 1.65014H47.3593V1.45014H45.8619V1.65014ZM45.7619 0.890539V1.55014H45.9619V0.890539H45.7619ZM49.5342 0.790539H45.8619V0.990539H49.5342V0.790539ZM49.6342 1.55014V0.890539H49.4342V1.55014H49.6342ZM48.0457 1.65014H49.5342V1.45014H48.0457V1.65014ZM48.1457 6.23864V1.55014H47.9457V6.23864H48.1457ZM47.3593 6.33864H48.0457V6.13864H47.3593V6.33864ZM47.2593 1.55014V6.23864H47.4593V1.55014H47.2593ZM61.5839 0.890539V4.01918H61.7839V0.890539H61.5839ZM62.3703 0.790539H61.6839V0.990539H62.3703V0.790539ZM62.4702 6.23864V0.890539H62.2703V6.23864H62.4702ZM61.6572 6.33864H62.3703V6.13864H61.6572V6.33864ZM58.8537 1.93286L61.5723 6.29156L61.742 6.18572L59.0234 1.82702L58.8537 1.93286ZM58.9029 1.97994H58.9386V1.77994H58.9029V1.97994ZM59.0385 2.90151L59.0028 1.87646L58.803 1.88341L58.8386 2.90847L59.0385 2.90151ZM59.0386 6.23864V2.90499H58.8386V6.23864H59.0386ZM58.2522 6.33864H58.9386V6.13864H58.2522V6.33864ZM58.1522 0.890539V6.23864H58.3522V0.890539H58.1522ZM59.0812 0.790539H58.2522V0.990539H59.0812V0.790539ZM61.7687 5.00013L59.166 0.837522L58.9964 0.943555L61.5991 5.10616L61.7687 5.00013ZM61.7107 4.95315H61.6839V5.15314H61.7107V4.95315ZM61.5839 4.02176L61.6107 5.05573L61.8106 5.05056L61.7839 4.01659L61.5839 4.02176Z"
        fill="white"></path>
    <path opacity="0.5"
        d="M0.396706 0.363786C0.112577 0.715028 -0.0276002 1.16104 0.00451221 1.61168V21.3283C-0.0258169 21.7833 0.12475 22.2318 0.423447 22.5762L0.485841 22.6475L11.5029 11.6037V11.3363L0.459101 0.301392L0.396706 0.363786Z"
        fill="white"></path>
    <path opacity="0.9"
        d="M15.1575 15.2849L11.5029 11.6036V11.3362L15.1575 7.65491L15.2377 7.70839L19.6142 10.1863C20.8621 10.8905 20.8621 12.0493 19.6142 12.7623L15.2555 15.2403L15.1575 15.2849Z"
        fill="white"></path>
    <path opacity="0.3"
        d="M15.2647 15.2395L11.5032 11.4691L0.396973 22.5753C0.916659 23.0379 1.69232 23.0642 2.24207 22.6377L15.2647 15.2395"
        fill="white"></path>
    <path opacity="0.7"
        d="M15.2647 7.70808L2.24207 0.309876C1.69564 -0.122677 0.91743 -0.100121 0.396973 0.363357L11.5032 11.4696L15.2647 7.70808Z"
        fill="white"></path>
</svg>