<svg viewBox="0 0 24 24" fill="none" xmlns="http://www.w3.org/2000/svg">
    <title>Download Mac (Intel)</title>
    <path
        d="M19.6646 17.4214C19.3774 18.0975 19.0373 18.7199 18.6434 19.2921C18.1064 20.0721 17.6667 20.6121 17.3278 20.9119C16.8025 21.4041 16.2397 21.6561 15.6371 21.6704C15.2044 21.6704 14.6827 21.545 14.0754 21.2906C13.466 21.0373 12.906 20.9119 12.394 20.9119C11.857 20.9119 11.2811 21.0373 10.665 21.2906C10.048 21.545 9.55103 21.6776 9.17099 21.6907C8.59306 21.7158 8.01701 21.4566 7.44201 20.9119C7.07502 20.5858 6.61598 20.0267 6.06613 19.2347C5.47612 18.389 4.99106 17.4083 4.61099 16.2901C4.20401 15.0824 4 13.913 4 12.7808C4 11.4838 4.27506 10.3653 4.82603 9.42795C5.25904 8.67503 5.83509 8.08112 6.55612 7.64506C7.2771 7.20905 8.05606 6.98686 8.89508 6.97264C9.35412 6.97264 9.95607 7.1173 10.7042 7.4016C11.4501 7.68686 11.9291 7.83152 12.1391 7.83152C12.2961 7.83152 12.8282 7.66238 13.7303 7.32514C14.5833 7.01241 15.3032 6.88292 15.893 6.93393C17.4911 7.06533 18.6918 7.70716 19.4903 8.86353C18.061 9.74583 17.354 10.9816 17.3681 12.5669C17.381 13.8017 17.8207 14.8293 18.6847 15.6452C19.0764 16.0239 19.5137 16.3165 20.0003 16.5244C19.8948 16.8362 19.783 17.1347 19.6646 17.4214ZM16.3077 2.41589C16.3077 3.45562 15.9874 4.42635 15.3489 5.32494C14.5784 6.39313 13.6464 7.01035 12.6358 6.913C12.6229 6.78826 12.6154 6.65698 12.6154 6.51903C12.6154 5.5209 12.9818 4.45269 13.6326 3.57934C13.9574 3.13712 14.3706 2.76942 14.8717 2.4761C15.3717 2.18715 15.8446 2.02736 16.2894 2C16.3024 2.13899 16.3077 2.27798 16.3077 2.41589Z"
        fill="white"></path>
</svg>