<svg width="1344" height="44" viewBox="0 0 1344 44" fill="none" xmlns="http://www.w3.org/2000/svg">
<path fill-rule="evenodd" clip-rule="evenodd" d="M30 18.066H27.66L27.659 18.067V16.347C27.659 13.4 25.12 11 22.002 11C18.881 11 16.342 13.4 16.342 16.346V18.066H14V30.31H14.016L22 34L29.984 30.31H30V18.066ZM26.78 20.94V28.274L22 30.478L17.22 28.275V20.94H26.78ZM19.245 18.067V16.347C19.245 14.982 20.481 13.872 22.001 13.872C23.52 13.872 24.757 14.982 24.757 16.347V18.067H19.245Z" fill="white"/>
<path d="M64 15V25H62V14C62 13.7348 62.1054 13.4804 62.2929 13.2929C62.4804 13.1054 62.7348 13 63 13H81C81.2652 13 81.5196 13.1054 81.7071 13.2929C81.8946 13.4804 82 13.7348 82 14V25H80V15H64Z" fill="white"/>
<path d="M75 26V28H69V26H60V29C60 29.2652 60.1054 29.5196 60.2929 29.7071C60.4804 29.8946 60.7348 30 61 30H83C83.2652 30 83.5196 29.8946 83.7071 29.7071C83.8946 29.5196 84 29.2652 84 29V26H75Z" fill="white"/>
<path d="M122 19.435L113.99 15.913L121.64 12.566C121.82 12.478 122.09 12.478 122.36 12.566L130.01 15.913L122 19.435Z" fill="white"/>
<path d="M131 17.41L122.9 20.932V31.5L130.46 28.242C130.82 28.065 131 27.801 131 27.45V17.41Z" fill="white"/>
<path d="M121.1 20.932V31.5L113.54 28.242C113.18 28.154 113 27.802 113 27.449V17.41L121.1 20.932Z" fill="white"/>
<path fill-rule="evenodd" clip-rule="evenodd" d="M181 18V24C181 24.6 180.6 25 180 25H164C163.4 25 163 24.6 163 24V18C163 17.4 163.4 17 164 17H168V14C168 13.4 168.4 13 169 13H175C175.6 13 176 13.4 176 14V17H180C180.6 17 181 17.4 181 18ZM174 15H170V17H174V15Z" fill="white"/>
<path d="M164 26H180V30C180 30.6 179.6 31 179 31H165C164.4 31 164 30.6 164 30V26Z" fill="white"/>
<path d="M230 15H214C213.735 15 213.48 15.1054 213.293 15.2929C213.105 15.4804 213 15.7348 213 16V27C213 27.2652 213.105 27.5196 213.293 27.7071C213.48 27.8946 213.735 28 214 28H218V33L224 28H230C230.265 28 230.52 27.8946 230.707 27.7071C230.895 27.5196 231 27.2652 231 27V16C231 15.7348 230.895 15.4804 230.707 15.2929C230.52 15.1054 230.265 15 230 15Z" fill="white"/>
<path fill-rule="evenodd" clip-rule="evenodd" d="M266 11H278C278.53 11 279.039 11.2107 279.414 11.5858C279.789 11.9609 280 12.4696 280 13V31C280 31.5304 279.789 32.0391 279.414 32.4142C279.039 32.7893 278.53 33 278 33H266C265.47 33 264.961 32.7893 264.586 32.4142C264.211 32.0391 264 31.5304 264 31V13C264 12.4696 264.211 11.9609 264.586 11.5858C264.961 11.2107 265.47 11 266 11ZM266 13V31H278V13H276L275.276 14.447C275.193 14.6131 275.065 14.7528 274.908 14.8504C274.75 14.9481 274.568 14.9999 274.382 15H269.618C269.432 14.9999 269.25 14.9481 269.092 14.8504C268.935 14.7528 268.807 14.6131 268.724 14.447L268 13H266Z" fill="white"/>
<path d="M320.697 23.2935H315.894L315.251 25.3274L320.714 28.8778V32L312.18 26.4335L313.572 22.0089L312.18 17.5843L320.697 12V15.1222L315.251 18.6726L315.876 20.7065H320.697V23.2935Z" fill="white"/>
<path d="M331.82 17.5843L323.303 12V15.1222L328.767 18.6726L328.124 20.7065H323.303V23.2935H328.124L328.767 25.3274L323.303 28.8778V32L331.82 26.4335L330.428 22.0089L331.82 17.5843Z" fill="white"/>
<path fill-rule="evenodd" clip-rule="evenodd" d="M372 34C365.372 34 360 28.628 360 22C360 15.372 365.372 10 372 10C378.628 10 384 15.372 384 22C384 28.628 378.628 34 372 34ZM365.747 31.145C367.588 32.4071 369.768 33.0808 372 33.077C374.32 33.077 376.473 32.363 378.253 31.145L374.194 27.087C373.501 27.3857 372.754 27.5392 372 27.538C371.245 27.5389 370.499 27.385 369.806 27.086L365.747 31.145ZM362.855 28.253L366.913 24.194C366.614 23.5012 366.461 22.7545 366.462 22C366.462 21.22 366.623 20.48 366.914 19.806L362.854 15.747C361.593 17.588 360.92 19.7684 360.924 22C360.924 24.32 361.637 26.473 362.855 28.253ZM365.747 12.856L369.806 16.913C370.499 16.6147 371.246 16.4615 372 16.463C372.754 16.4618 373.501 16.6153 374.194 16.914L378.253 12.855C376.412 11.5929 374.232 10.9192 372 10.923C369.68 10.923 367.527 11.638 365.747 12.856ZM381.144 15.747L377.087 19.807C377.386 20.4995 377.539 21.2459 377.538 22C377.539 22.7545 377.385 23.5012 377.086 24.194L381.145 28.254C382.407 26.413 383.081 24.2322 383.077 22C383.077 19.68 382.363 17.527 381.145 15.747H381.144ZM372 26.615C373.224 26.615 374.398 26.1288 375.263 25.2633C376.129 24.3978 376.615 23.224 376.615 22C376.615 20.776 376.129 19.6022 375.263 18.7367C374.398 17.8712 373.224 17.385 372 17.385C370.776 17.385 369.602 17.8712 368.737 18.7367C367.871 19.6022 367.385 20.776 367.385 22C367.385 23.224 367.871 24.3978 368.737 25.2633C369.602 26.1288 370.776 26.615 372 26.615Z" fill="white"/>
<path fill-rule="evenodd" clip-rule="evenodd" d="M423.155 11.061L430.845 15.525C431.197 15.7296 431.488 16.023 431.691 16.3757C431.894 16.7284 432 17.1282 432 17.535V26.465C432 27.295 431.56 28.06 430.845 28.475L423.155 32.939C422.804 33.1428 422.406 33.2502 422 33.2502C421.594 33.2502 421.196 33.1428 420.845 32.939L413.155 28.475C412.803 28.2704 412.512 27.977 412.309 27.6243C412.106 27.2716 412 26.8718 412 26.465V17.535C412 16.706 412.44 15.94 413.155 15.525L420.845 11.061C421.196 10.8572 421.594 10.7498 422 10.7498C422.406 10.7498 422.804 10.8572 423.155 11.061ZM421.243 23.528L418.414 20.7L417 22.114L421.243 26.357L427.607 19.992L426.192 18.578L421.243 23.528Z" fill="white"/>
<path d="M467.587 31.225L480.963 22.418C481.032 22.3725 481.089 22.3105 481.128 22.2375C481.168 22.1645 481.188 22.0829 481.188 22C481.188 21.9171 481.168 21.8355 481.128 21.7625C481.089 21.6895 481.032 21.6275 480.963 21.582L467.587 12.775C467.511 12.7253 467.424 12.697 467.334 12.6931C467.243 12.6891 467.154 12.7096 467.074 12.7525C466.995 12.7954 466.928 12.859 466.882 12.9365C466.836 13.0141 466.812 13.1027 466.812 13.193V30.807C466.812 30.8973 466.836 30.9859 466.882 31.0635C466.928 31.141 466.995 31.2046 467.074 31.2475C467.154 31.2904 467.243 31.3109 467.334 31.3069C467.424 31.303 467.511 31.2747 467.587 31.225Z" fill="white"/>
<path d="M521.998 11C523.741 10.9994 525.459 11.4129 527.011 12.2067C528.562 13.0005 529.903 14.1516 530.923 15.5653C531.942 16.979 532.611 18.6148 532.874 20.3377C533.137 22.0607 532.987 23.8215 532.436 25.475H529.147V16.218L521.997 23.369L514.85 16.219V25.473H511.562C511.012 23.8198 510.863 22.0596 511.127 20.3375C511.39 18.6153 512.059 16.9804 513.078 15.5672C514.097 14.1541 515.437 13.0031 516.988 12.2091C518.539 11.415 520.256 11.0007 521.998 11Z" fill="white"/>
<path d="M526.761 21.892L521.998 26.657L517.235 21.892V27.716H512.601C513.582 29.3297 514.962 30.6636 516.608 31.5891C518.254 32.5146 520.11 33.0005 521.999 33C523.887 33.0007 525.743 32.5148 527.389 31.5893C529.035 30.6638 530.414 29.3298 531.394 27.716H526.761V21.892Z" fill="white"/>
<path d="M573 12H581V20H573V12Z" fill="white"/>
<path d="M566 29H569V27H566V24H564V27H561V29H564V32H566V29Z" fill="white"/>
<path d="M565 20C562.795 20 561 18.205 561 16C561 13.795 562.795 12 565 12C567.205 12 569 13.795 569 16C569 18.205 567.205 20 565 20Z" fill="white"/>
<path d="M577 24L572 32H582L577 24Z" fill="white"/>
<path d="M620.128 30L622.688 28H628C628.53 28 629.039 27.7893 629.414 27.4142C629.789 27.0391 630 26.5304 630 26V18H632C632.265 18 632.52 18.1054 632.707 18.2929C632.895 18.4804 633 18.7348 633 19V29C633 29.2652 632.895 29.5196 632.707 29.7071C632.52 29.8946 632.265 30 632 30H630V34L624 30H620.128Z" fill="white"/>
<path d="M627 14H612C611.735 14 611.48 14.1054 611.293 14.2929C611.105 14.4804 611 14.7348 611 15V25C611 25.2652 611.105 25.5196 611.293 25.7071C611.48 25.8946 611.735 26 612 26H615V31.47L622 26H627C627.265 26 627.52 25.8946 627.707 25.7071C627.895 25.5196 628 25.2652 628 25V15C628 14.7348 627.895 14.4804 627.707 14.2929C627.52 14.1054 627.265 14 627 14Z" fill="white"/>
<path d="M680.566 12.4348C680.913 12.4348 681.174 12.5218 681.348 12.6948C681.522 12.8698 681.609 13.1308 681.609 13.3918C681.603 13.4195 681.593 13.4823 681.578 13.5766L681.578 13.5777C681.427 14.5143 680.777 18.547 679.167 22.2688C674.527 23.8528 672.081 24.7328 671.829 24.9118C671.536 25.1188 671.536 25.2728 671.829 25.3738L677.774 24.9478C677.305 25.7048 676.754 26.4078 676.131 27.0438C674.391 28.7828 672.305 29.6518 670.044 29.6518C668.494 29.6518 667.252 29.2698 666.529 28.9358L666.392 28.8698L663.957 31.3048C663.88 31.3897 663.786 31.4568 663.681 31.5017C663.576 31.5466 663.462 31.5681 663.348 31.5648C663.143 31.5648 662.991 31.5108 662.808 31.4459L662.773 31.4332C662.75 31.4253 662.727 31.4173 662.704 31.4092L662.678 31.4003L662.652 31.3918C662.5 31.2479 662.408 31.0524 662.393 30.8439C662.378 30.6353 662.442 30.4287 662.572 30.2648L662.652 30.1748L665.174 27.6518L673.631 19.6188C673.863 19.3868 670.871 21.3988 664.652 25.6518C664.218 23.5648 664.392 20.6088 667.087 17.9128C667.712 17.2888 668.482 16.7238 669.336 16.2168C669.468 16.2918 669.586 16.3848 669.693 16.4928C670.25 17.0637 670.241 18.1411 670.236 18.8216C670.232 19.3129 670.229 19.5973 670.443 19.3348C670.81 18.8848 671.444 17.5048 671.388 15.1628C675.095 13.4978 679.354 12.6715 680.356 12.477L680.445 12.4598L680.566 12.4348Z" fill="white"/>
<path opacity="0.6" d="M712.712 28.2615C712.344 28.0487 712.038 27.7426 711.825 27.3741C711.612 27.0055 711.5 26.5875 711.5 26.1619V16.8374C711.5 15.9709 711.962 15.1711 712.712 14.7378L715.717 13.0033V28.3637C715.717 28.8418 715.838 29.312 716.069 29.7305C716.3 30.149 716.633 30.502 717.038 30.7567L717.13 30.8121L712.712 28.2615ZM720.788 10.0756C721.156 9.86275 721.574 9.7507 722 9.7507C722.426 9.7507 722.844 9.86275 723.212 10.0756L731.287 14.7378C731.656 14.9507 731.962 15.2568 732.174 15.6255C732.387 15.9942 732.499 16.4124 732.499 16.8381V20.3071L719.197 12.6262C718.783 12.3873 718.315 12.2572 717.837 12.2481C717.359 12.239 716.887 12.3513 716.464 12.5743L716.37 12.6262L720.788 10.0763V10.0756Z" fill="white"/>
<path opacity="0.5" d="M732.499 26.1626C732.499 27.0291 732.038 27.8296 731.287 28.2629L723.212 32.9244C722.844 33.1373 722.426 33.2493 722 33.2493C721.574 33.2493 721.156 33.1373 720.788 32.9244L717.783 31.1899L731.087 23.5097C731.5 23.2707 731.847 22.9306 732.093 22.5213C732.34 22.112 732.479 21.6469 732.497 21.1694L732.499 21.0614V26.1626Z" fill="white"/>
<path d="M723.212 32.9244C722.844 33.1372 722.426 33.2493 722 33.2493C721.574 33.2493 721.156 33.1372 720.788 32.9244L712.712 28.2622C712.344 28.0494 712.038 27.7433 711.825 27.3748C711.612 27.0062 711.5 26.5882 711.5 26.1626V22.6936L724.803 30.3738C725.217 30.6127 725.685 30.7429 726.163 30.752C726.64 30.7612 727.113 30.6492 727.535 30.4264L727.63 30.3738L723.212 32.9244H723.212ZM731.288 14.7371C731.656 14.95 731.962 15.2561 732.175 15.6248C732.388 15.9935 732.5 16.4117 732.5 16.8374V26.1619C732.5 27.0284 732.038 27.8282 731.287 28.2615L728.282 29.996V14.6355C728.283 14.1576 728.161 13.6874 727.931 13.2689C727.7 12.8504 727.366 12.4973 726.962 12.2426L726.87 12.1872L731.288 14.7371ZM711.5 16.8374C711.5 15.9709 711.962 15.1711 712.712 14.7378L720.788 10.0756C721.156 9.86275 721.574 9.7507 722 9.7507C722.426 9.7507 722.844 9.86275 723.212 10.0756L726.217 11.8108L712.913 19.491C712.5 19.7299 712.153 20.0698 711.906 20.479C711.66 20.8881 711.52 21.3532 711.502 21.8306L711.5 21.9393V16.8381V16.8374Z" fill="white"/>
<path fill-rule="evenodd" clip-rule="evenodd" d="M722.617 17.7799V20.8675L725.706 20.8682V22.1041L722.617 22.1027V25.806L721.381 25.0929V22.1027L718.294 22.1034V20.8682H721.381L721.382 17.7799H722.617Z" fill="white"/>
<path d="M761.361 21.9084L763.704 23.6824L771.887 20.0454L765.543 25.0454V31.1814C765.543 31.3676 765.601 31.549 765.708 31.7013C765.815 31.8537 765.967 31.9694 766.142 32.0331C766.316 32.0968 766.507 32.1052 766.687 32.0574C766.867 32.0095 767.027 31.9076 767.148 31.7654L769.994 28.3854L775.908 32.8174C776.03 32.9093 776.174 32.9687 776.326 32.9902C776.478 33.0116 776.633 32.9943 776.776 32.94C776.919 32.8856 777.047 32.7959 777.146 32.6792C777.245 32.5625 777.314 32.4225 777.345 32.2724L780.982 14.0884C781.014 13.9278 781.002 13.7616 780.947 13.6073C780.892 13.453 780.797 13.3162 780.671 13.2115C780.545 13.1067 780.394 13.0379 780.232 13.0122C780.07 12.9865 779.905 13.0048 779.753 13.0654L761.569 20.3404C761.42 20.4008 761.29 20.4996 761.191 20.6267C761.093 20.7538 761.03 20.9046 761.009 21.0639C760.988 21.2232 761.009 21.3852 761.071 21.5336C761.133 21.6819 761.233 21.8112 761.361 21.9084Z" fill="white"/>
<path d="M812.612 28.621L810.531 26.544L818.751 18.323L818.753 18.322L823.425 22.996L828.79 17.6324L826.537 15.379H833.469V22.311L830.87 19.7123L823.425 27.156L818.751 22.482L812.612 28.621Z" fill="white"/>
<path d="M872.129 23.928C874.396 23.928 876.15 21.22 876.475 18.143C876.8 15.065 874.529 12.357 872.129 12.357C869.729 12.357 867.534 15.132 867.783 18.143C868.031 21.153 869.861 23.928 872.129 23.928Z" fill="white"/>
<path d="M875.454 24.72C874.738 25.623 873.622 26.072 872 26.043C870.428 26.016 869.32 25.577 868.595 24.7L864.8 26.27C864.02 26.58 863.648 27.353 863.513 28.18L863 31.643H881L880.486 28.18C880.376 27.32 879.978 26.58 879.2 26.27L875.454 24.72Z" fill="white"/>
<path d="M929.667 20.3333V16.1667C929.667 15.7067 929.294 15.3333 928.833 15.3333H924.667C924.667 13.495 923.172 12 921.333 12C919.495 12 918 13.495 918 15.3333H913.833C913.373 15.3333 913 15.7067 913 16.1667V20.3333C914.841 20.3333 916.333 21.8258 916.333 23.6667C916.333 25.5075 914.841 27 913 27V31.1667C913 31.6267 913.373 32 913.833 32H918C918 30.1592 919.493 28.6667 921.333 28.6667C923.174 28.6667 924.667 30.1592 924.667 32H928.833C929.294 32 929.667 31.6267 929.667 31.1667V27C931.505 27 933 25.505 933 23.6667C933 21.8283 931.505 20.3333 929.667 20.3333Z" fill="white"/>
<path fill-rule="evenodd" clip-rule="evenodd" d="M975.08 12.1388L968.42 21.028H972.58V31.028C972.58 31.4879 972.96 31.8612 973.42 31.8612H976.75C977.21 31.8612 977.58 31.4879 977.58 31.028V21.028H981.75L975.08 12.1388ZM965.08 31.8612H968.42C968.88 31.8612 969.25 31.4879 969.25 31.028V25.1946C969.25 24.7346 968.88 24.3612 968.42 24.3612H965.08C964.62 24.3612 964.25 24.7346 964.25 25.1946V31.028C964.25 31.4879 964.62 31.8612 965.08 31.8612Z" fill="white"/>
<path fill-rule="evenodd" clip-rule="evenodd" d="M1015.72 19.622H1015.02C1014.89 19.6191 1014.75 19.6436 1014.63 19.694C1014.5 19.7445 1014.39 19.8198 1014.29 19.9154C1014.2 20.011 1014.12 20.125 1014.07 20.2503C1014.02 20.3757 1014 20.51 1014 20.645V31.477C1014 32.035 1014.46 32.5 1015.02 32.5H1028.98C1029.54 32.5 1030 32.035 1030 31.478V20.598C1030 20.04 1029.54 19.575 1028.98 19.575H1028.28V18.041C1028.28 16.3251 1027.62 14.675 1026.43 13.439C1026.39 13.3945 1026.34 13.35 1026.3 13.3053C1026.25 13.2567 1026.2 13.208 1026.15 13.159C1023.69 10.835 1019.84 10.975 1017.52 13.439C1016.37 14.694 1015.72 16.322 1015.72 18.042V19.622ZM1026.34 19.622H1017.66V18.041C1017.66 16.8305 1018.13 15.6669 1018.96 14.787C1019.01 14.74 1019.1 14.647 1019.15 14.554C1020.82 13.02 1023.46 13.113 1025.04 14.787C1025.87 15.6671 1026.34 16.8311 1026.34 18.042V19.622ZM1019.84 29.664L1021.05 26.456C1020.63 26.27 1020.26 25.898 1020.03 25.433C1019.47 24.318 1019.89 22.969 1021 22.411C1022.12 21.854 1023.46 22.272 1024.02 23.388C1024.57 24.504 1024.16 25.852 1023.04 26.41L1024.16 29.664H1019.84Z" fill="white"/>
<path d="M1067.72 25.15V20.128H1065.8V18.85H1071.02V20.128H1069.1V25.15H1067.72Z" fill="white"/>
<path d="M1071.59 25.15V18.85H1073.08L1074.74 21.514L1076.39 18.85H1077.89V25.15H1076.51V21.037L1074.74 23.728H1074.7L1072.94 21.064V25.15H1071.59Z" fill="white"/>
<path fill-rule="evenodd" clip-rule="evenodd" d="M1072 31.5C1077.25 31.5 1081.5 27.2467 1081.5 22C1081.5 16.7533 1077.25 12.5 1072 12.5C1066.75 12.5 1062.5 16.7533 1062.5 22C1062.5 27.2467 1066.75 31.5 1072 31.5ZM1072 33C1078.08 33 1083 28.0751 1083 22C1083 15.9249 1078.08 11 1072 11C1065.92 11 1061 15.9249 1061 22C1061 28.0751 1065.92 33 1072 33Z" fill="white"/>
<path opacity="0.6" d="M1112.71 28.7615C1112.34 28.5487 1112.04 28.2426 1111.82 27.8741C1111.61 27.5055 1111.5 27.0875 1111.5 26.6619V17.3374C1111.5 16.4709 1111.96 15.6711 1112.71 15.2378L1115.72 13.5033V28.8637C1115.72 29.3418 1115.84 29.812 1116.07 30.2305C1116.3 30.649 1116.63 31.002 1117.04 31.2567L1117.13 31.3121L1112.71 28.7615ZM1120.79 10.5756C1121.16 10.3627 1121.57 10.2507 1122 10.2507C1122.43 10.2507 1122.84 10.3627 1123.21 10.5756L1131.29 15.2378C1131.66 15.4507 1131.96 15.7568 1132.17 16.1255C1132.39 16.4942 1132.5 16.9124 1132.5 17.3381V20.8071L1119.2 13.1262C1118.78 12.8873 1118.31 12.7572 1117.84 12.7481C1117.36 12.739 1116.89 12.8513 1116.46 13.0743L1116.37 13.1262L1120.79 10.5763V10.5756Z" fill="white"/>
<path opacity="0.5" d="M1132.5 26.6626C1132.5 27.5291 1132.04 28.3296 1131.29 28.7629L1123.21 33.4244C1122.84 33.6373 1122.43 33.7493 1122 33.7493C1121.57 33.7493 1121.16 33.6373 1120.79 33.4244L1117.78 31.6899L1131.09 24.0097C1131.5 23.7707 1131.85 23.4306 1132.09 23.0213C1132.34 22.612 1132.48 22.1469 1132.5 21.6694L1132.5 21.5614V26.6626Z" fill="white"/>
<path d="M1123.21 33.4244C1122.84 33.6372 1122.43 33.7493 1122 33.7493C1121.57 33.7493 1121.16 33.6372 1120.79 33.4244L1112.71 28.7622C1112.34 28.5494 1112.04 28.2433 1111.82 27.8748C1111.61 27.5062 1111.5 27.0882 1111.5 26.6626V23.1936L1124.8 30.8738C1125.22 31.1127 1125.68 31.2429 1126.16 31.252C1126.64 31.2612 1127.11 31.1492 1127.54 30.9264L1127.63 30.8738L1123.21 33.4244H1123.21ZM1131.29 15.2371C1131.66 15.45 1131.96 15.7561 1132.18 16.1248C1132.39 16.4935 1132.5 16.9117 1132.5 17.3374V26.6619C1132.5 27.5284 1132.04 28.3282 1131.29 28.7615L1128.28 30.496V15.1355C1128.28 14.6576 1128.16 14.1874 1127.93 13.7689C1127.7 13.3504 1127.37 12.9973 1126.96 12.7426L1126.87 12.6872L1131.29 15.2371ZM1111.5 17.3374C1111.5 16.4709 1111.96 15.6711 1112.71 15.2378L1120.79 10.5756C1121.16 10.3627 1121.57 10.2507 1122 10.2507C1122.43 10.2507 1122.84 10.3627 1123.21 10.5756L1126.22 12.3108L1112.91 19.991C1112.5 20.2299 1112.15 20.5698 1111.91 20.979C1111.66 21.3881 1111.52 21.8532 1111.5 22.3306L1111.5 22.4393V17.3381V17.3374Z" fill="white"/>
<path fill-rule="evenodd" clip-rule="evenodd" d="M1122.62 18.2799V21.3675L1125.71 21.3682V22.6041L1122.62 22.6027V26.306L1121.38 25.5929V22.6027L1118.29 22.6034V21.3682H1121.38L1121.38 18.2799H1122.62Z" fill="white"/>
<path d="M1179.57 13.3175L1175.83 19.7888H1183.3C1183.42 19.7888 1183.51 19.8836 1183.51 19.9994V24.0006C1183.51 24.1164 1183.42 24.2111 1183.3 24.2111H1175.83L1172 17.5778L1168.17 24.2112H1160.7C1160.58 24.2112 1160.49 24.1164 1160.49 24.0006V19.9994C1160.49 19.8836 1160.58 19.7888 1160.7 19.7888H1168.17L1164.44 13.3175C1164.38 13.2165 1164.41 13.088 1164.51 13.029L1167.98 11.0285C1168.08 10.9716 1168.21 11.0053 1168.27 11.1064L1172 17.5778L1175.74 11.1064C1175.8 11.0053 1175.93 10.9695 1176.03 11.0285L1179.49 13.029C1179.59 13.088 1179.63 13.2165 1179.57 13.3175Z" fill="white"/>
<path d="M1168.17 24.2112L1164.44 30.6825C1164.38 30.7835 1164.41 30.912 1164.51 30.971L1167.98 32.9715C1168.08 33.0305 1168.21 32.9947 1168.27 32.8936L1172 26.4223L1175.74 32.8936C1175.8 32.9947 1175.93 33.0284 1176.03 32.9715L1179.49 30.971C1179.6 30.912 1179.63 30.7835 1179.57 30.6825L1175.84 24.2112H1168.17Z" fill="white"/>
<path d="M1219.14 21.9591C1219.1 21.9978 1219.1 22.0564 1219.14 22.0951C1220.03 23.0704 1220.93 24.044 1221.82 25.0197C1222.66 25.933 1223.5 26.8475 1224.35 27.7647C1224.38 27.8009 1224.35 27.8603 1224.3 27.8612C1224.24 27.8629 1224.18 27.8629 1224.17 27.8629C1224.04 27.863 1223.9 27.8631 1223.77 27.8632C1222.68 27.864 1221.67 27.8648 1220.56 27.8594C1220.49 27.8586 1220.41 27.8104 1220.36 27.7596C1219.71 27.0475 1219.06 26.3328 1218.41 25.6179C1218.23 25.4207 1218.05 25.2235 1217.87 25.0264C1217.72 24.8636 1217.57 24.7013 1217.42 24.5319C1217.32 24.4324 1217.23 24.3305 1217.13 24.2247C1217.12 24.2407 1217.12 24.2553 1217.11 24.2688C1217.09 24.296 1217.08 24.3185 1217.06 24.3375C1216.77 24.6576 1216.48 24.9776 1216.19 25.2976C1215.45 26.1054 1214.72 26.9131 1213.99 27.7217C1213.9 27.8129 1213.83 27.8681 1213.69 27.8681C1212.49 27.8612 1211.31 27.856 1210.11 27.856H1210.08C1210.01 27.856 1209.97 27.769 1210.02 27.7148C1210.03 27.7001 1210.05 27.6858 1210.06 27.6717C1210.1 27.6286 1210.14 27.5879 1210.17 27.5477C1210.47 27.2194 1210.77 26.8911 1211.07 26.5628C1212.42 25.093 1213.77 23.6232 1215.12 22.1563C1215.21 22.0547 1215.21 21.9952 1215.12 21.8971C1214.12 20.7976 1213.11 19.6956 1212.11 18.5934C1211.81 18.2574 1211.5 17.9214 1211.2 17.5855C1211 17.3696 1210.81 17.1535 1210.61 16.9337C1210.42 16.7283 1210.23 16.5196 1210.04 16.305C1209.98 16.2395 1210.02 16.1353 1210.11 16.1353C1210.38 16.1353 1210.65 16.1355 1210.92 16.1356C1211.83 16.1361 1212.73 16.1365 1213.63 16.1319C1213.77 16.1319 1213.85 16.1775 1213.94 16.2766C1214.53 16.9277 1215.12 17.5771 1215.71 18.2268C1216.14 18.7061 1216.58 19.1855 1217.01 19.6659C1217.03 19.6831 1217.04 19.7029 1217.05 19.7245C1217.09 19.783 1217.17 19.7908 1217.21 19.7426C1217.24 19.7124 1217.26 19.6909 1217.28 19.6685C1217.44 19.4938 1217.6 19.3191 1217.76 19.1444C1218.64 18.1797 1219.52 17.215 1220.4 16.2533C1220.45 16.193 1220.55 16.1414 1220.63 16.1414C1221.84 16.1345 1223.85 16.1397 1224.09 16.1431C1224.22 16.1448 1224.28 16.2938 1224.2 16.3859L1219.14 21.9591Z" fill="white"/>
<path fill-rule="evenodd" clip-rule="evenodd" d="M1228.18 16.1371C1229.04 16.1405 1229.87 16.3317 1230.65 16.7046C1232.99 17.818 1234.35 20.3945 1233.92 22.9227C1233.43 25.8083 1231.04 27.8457 1228.11 27.8638C1227.12 27.8698 1226.7 27.8672 1225.74 27.8603C1225.62 27.8595 1225.46 27.788 1225.38 27.701C1224.16 26.3777 1222.94 25.0515 1221.73 23.725C1221.6 23.5876 1221.48 23.4502 1221.35 23.3128C1221.19 23.1364 1221.03 22.9599 1220.87 22.7822C1220.67 22.5677 1220.47 22.3516 1220.27 22.1322C1220.22 22.0728 1220.22 21.9806 1220.27 21.9212C1220.29 21.8984 1220.31 21.876 1220.33 21.8538C1220.4 21.7806 1220.46 21.7106 1220.53 21.6405C1220.9 21.2287 1221.27 20.8168 1221.65 20.405C1222.87 19.054 1224.1 17.7032 1225.33 16.355C1225.44 16.237 1225.66 16.1397 1225.82 16.1388C1226.75 16.1336 1227.19 16.1328 1228.18 16.1371ZM1224.33 21.9978C1224.33 23.9164 1225.88 25.4725 1227.8 25.4725C1229.72 25.4725 1231.28 23.9164 1231.28 21.9978C1231.28 20.0793 1229.72 18.5232 1227.8 18.5232C1225.88 18.5232 1224.33 20.0793 1224.33 21.9978Z" fill="white"/>
<path d="M1277 23.725C1277 24.325 1277.52 24.85 1278.12 24.85H1280.75V22.6H1278.12C1277.52 22.6 1277 23.125 1277 23.725Z" fill="white"/>
<path d="M1263 28.225C1263 29.5 1264.05 30.625 1265.32 30.625H1278.83C1279.95 30.625 1280.92 29.65 1280.92 28.525V26.425H1278C1276.57 26.425 1275.5 25.175 1275.5 23.75C1275.5 22.325 1276.57 21 1278 21H1281V18.7C1281 17.725 1280.4 16.975 1279.5 16.675V15.475C1279.5 14.35 1278.53 13.375 1277.4 13.375H1265.4C1264.05 13.375 1263 14.425 1263 15.7C1263 15.85 1263 28.15 1263 28.225ZM1265.32 14.875H1277.33C1277.63 14.875 1277.92 15.175 1277.92 15.475V16.6H1265.32C1264.87 16.6 1264.5 16.225 1264.5 15.775C1264.5 15.25 1264.87 14.875 1265.32 14.875Z" fill="white"/>
<path opacity="0.5" d="M1331.75 20.1252H1333.25V26.8751H1331.75V20.1252ZM1322.95 25.1641C1322.35 25.444 1321.65 25.4456 1321.05 25.1641L1313.75 21.7579V27.6247C1313.75 30.1469 1317.37 32.1244 1322 32.1244C1326.63 32.1244 1330.25 30.1469 1330.25 27.6247V21.7571L1322.95 25.1641Z" fill="white"/>
<path d="M1333.57 17.1951L1322.32 11.9458C1322.22 11.8994 1322.11 11.8754 1322 11.8754C1321.89 11.8754 1321.78 11.8994 1321.68 11.9458L1310.43 17.1959C1310.3 17.256 1310.19 17.3518 1310.12 17.4722C1310.04 17.5925 1310 17.7323 1310 17.875C1310 18.0178 1310.04 18.1575 1310.12 18.2779C1310.19 18.3982 1310.3 18.4941 1310.43 18.5542L1321.68 23.8042C1321.78 23.8506 1321.89 23.8746 1322 23.8746C1322.11 23.8746 1322.22 23.8506 1322.32 23.8042L1333.57 18.5542C1333.7 18.4941 1333.81 18.3982 1333.88 18.2779C1333.96 18.1575 1334 18.0178 1334 17.875C1334 17.7323 1333.96 17.5925 1333.88 17.4722C1333.81 17.3518 1333.7 17.256 1333.57 17.1959L1333.57 17.1951Z" fill="white"/>
</svg>
