<svg width="107" height="121" viewBox="0 0 107 121" fill="none" xmlns="http://www.w3.org/2000/svg">
<rect width="107" height="121" fill="#1E1E1E"/>
<rect width="1920" height="8003.16" transform="translate(-772 -5023)" fill="white"/>
<rect width="1920" height="8003.16" transform="translate(-772 -5023)" fill="#1F1B34"/>
<rect width="1920" height="8003.16" transform="translate(-772 -5023)" fill="#1F2033"/>
<path opacity="0.25" d="M59.3005 20.979L85.9415 36.3602C88.4167 37.7893 89.9415 40.4303 89.9415 43.2884V59.3401C89.0456 59.1948 88.1116 59.3563 87.3008 59.8244L85.6113 60.7998V45.2111C85.6113 42.7102 84.2772 40.3993 82.1113 39.1489L58.8005 25.6904C56.6347 24.4399 53.9663 24.4399 51.8005 25.6904L28.4896 39.1489C26.3238 40.3993 24.9896 42.7102 24.9896 45.2111V72.1282C24.9896 74.6291 26.3238 76.9399 28.4896 78.1904L51.8005 91.6489C53.9663 92.8993 56.6347 92.8993 58.8005 91.6489L63.9085 88.6998V91.284C63.9085 92.0262 64.2512 92.7196 64.825 93.1707L59.3005 96.3602C56.8252 97.7893 53.7757 97.7893 51.3005 96.3602L24.6594 80.979C22.1842 79.55 20.6594 76.909 20.6594 74.0508V43.2884C20.6594 40.4303 22.1842 37.7893 24.6594 36.3602L51.3005 20.979C53.7757 19.55 56.8252 19.55 59.3005 20.979Z" fill="url(#paint0_linear_0_1)"/>
<path opacity="0.25" d="M58.7911 25.6907L82.102 39.1493C84.2678 40.3997 85.602 42.7106 85.602 45.2115V60.8055L73.9802 67.5153C72.7426 68.2298 71.9802 69.5503 71.9802 70.9794V76.0097L65.1085 79.9771C64.3659 80.4059 63.9085 81.1982 63.9085 82.0556V88.6948L58.7911 91.6493C56.6253 92.8997 53.9569 92.8997 51.7911 91.6493L28.4802 78.1907C26.3144 76.9403 24.9802 74.6294 24.9802 72.1286V45.2115C24.9802 42.7106 26.3144 40.3997 28.4802 39.1493L51.7911 25.6907C53.9569 24.4403 56.6253 24.4403 58.7911 25.6907Z" fill="url(#paint1_linear_0_1)"/>
<g opacity="0.1">
<path d="M67.1463 53.3711L56.926 46.6699V50.4166L63.4824 54.677L62.711 57.1177H56.926V60.2221H62.711L63.4824 62.6628L56.926 66.9232V70.6699L67.1463 63.9901L65.475 58.6806L67.1463 53.3711Z" fill="white"/>
<path d="M48.0341 60.2221H53.7977V57.1177H48.0126L47.2627 54.677L53.7977 50.4166V46.6699L43.5774 53.3711L45.2487 58.6806L43.5774 63.9901L53.8192 70.6699V66.9232L47.2627 62.6628L48.0341 60.2221Z" fill="white"/>
</g>
<path opacity="0.4" fill-rule="evenodd" clip-rule="evenodd" d="M60.4668 12.2303L60.0506 11.99L60.5506 11.124L60.9668 11.3643L60.4668 12.2303ZM64.6295 14.6336L63.7969 14.153L64.2969 13.2869L65.1295 13.7676L64.6295 14.6336ZM68.7921 17.0369L67.9596 16.5563L68.4596 15.6903L69.2921 16.1709L68.7921 17.0369ZM72.9548 19.4403L72.1223 18.9596L72.6223 18.0936L73.4548 18.5742L72.9548 19.4403ZM77.1175 21.8436L76.2849 21.3629L76.7849 20.4969L77.6175 20.9775L77.1175 21.8436ZM81.2801 24.2469L80.4476 23.7662L80.9476 22.9002L81.7801 23.3808L81.2801 24.2469ZM85.4428 26.6502L84.6102 26.1695L85.1102 25.3035L85.9428 25.7842L85.4428 26.6502ZM89.6054 29.0535L88.7729 28.5728L89.2729 27.7068L90.1054 28.1875L89.6054 29.0535ZM93.3518 31.2165L92.9356 30.9761L93.4356 30.1101L93.8518 30.3505C94.0111 30.4424 94.1674 30.5382 94.3207 30.6377L93.7761 31.4764C93.6375 31.3864 93.496 31.2997 93.3518 31.2165ZM97.0664 35.1308C96.9158 34.8353 96.7498 34.5478 96.5692 34.2696L97.4079 33.725C97.6075 34.0325 97.791 34.3502 97.9574 34.6768L97.0664 35.1308ZM98.1018 39.4437C98.1018 39.2772 98.0975 39.1114 98.0888 38.9463L99.0875 38.8941C99.097 39.0765 99.1018 39.2598 99.1018 39.4437V39.9595H98.1018V39.4437ZM98.1018 44.0729H99.1018V45.0999H98.1018V44.0729ZM98.1018 49.2147H99.1018V50.2425H98.1018V49.2147ZM98.1018 54.3562H99.1018V55.385H98.1018V54.3562ZM11.4993 58.2181H12.4993V58.7091H11.4993V58.2181ZM98.1018 59.4978H99.1018V60.0101L98.1018 60.011V59.4978ZM11.4993 62.6442H12.4993V63.6286H11.4993V62.6442ZM11.4993 67.5645H12.4993V68.5479H11.4993V67.5645ZM11.4993 72.485H12.4993V73.4676H11.4993V72.485ZM11.4993 77.4032H12.4993V77.8967C12.4993 78.0632 12.5036 78.2291 12.5123 78.3942L11.5136 78.4464C11.5041 78.2639 11.4993 78.0807 11.4993 77.8967V77.4032ZM13.1932 83.6154C12.9936 83.308 12.8102 82.9903 12.6437 82.6637L13.5347 82.2096C13.6853 82.5051 13.8513 82.7926 14.0319 83.0708L13.1932 83.6154ZM16.7493 86.99C16.59 86.898 16.4337 86.8022 16.2805 86.7027L16.825 85.864C16.9636 85.954 17.1051 86.0407 17.2493 86.124L17.6656 86.3643L17.1656 87.2303L16.7493 86.99ZM21.3282 89.6336L20.4957 89.153L20.9957 88.2869L21.8282 88.7676L21.3282 89.6336ZM25.4909 92.0369L24.6583 91.5563L25.1583 90.6902L25.9909 91.1709L25.4909 92.0369ZM29.6535 94.4403L28.821 93.9596L29.321 93.0936L30.1535 93.5742L29.6535 94.4403ZM33.8162 96.8436L32.9837 96.3629L33.4837 95.4969L34.3162 95.9775L33.8162 96.8436ZM37.9788 99.2469L37.1463 98.7662L37.6463 97.9002L38.4788 98.3809L37.9788 99.2469ZM42.1415 101.65L41.309 101.169L41.809 100.304L42.6415 100.784L42.1415 101.65ZM46.3042 104.053L45.4716 103.573L45.9716 102.707L46.8042 103.187L46.3042 104.053ZM50.0506 106.216L49.6343 105.976L50.1343 105.11L50.5506 105.35L50.0506 106.216Z" fill="white"/>
<path opacity="0.2" fill-rule="evenodd" clip-rule="evenodd" d="M54.7527 103.451L58.8317 110.386L50.786 110.322L54.7527 103.451Z" fill="white"/>
<path opacity="0.2" fill-rule="evenodd" clip-rule="evenodd" d="M59.7671 6.66992L55.8008 13.6699L51.8338 6.66992H59.7671Z" fill="white"/>
<path opacity="0.5" d="M91.3005 59.8249L104.621 67.5155C105.859 68.23 106.621 69.5505 106.621 70.9796V86.3608C106.621 87.7899 105.859 89.1104 104.621 89.8249L91.3005 97.5155C90.0629 98.23 88.5381 98.23 87.3005 97.5155L73.98 89.8249C72.7424 89.1104 71.98 87.7899 71.98 86.3608V70.9796C71.98 69.5505 72.7424 68.23 73.98 67.5155L87.3005 59.8249C88.5381 59.1104 90.0629 59.1104 91.3005 59.8249Z" fill="url(#paint2_linear_0_1)"/>
<path opacity="0.5" d="M75.5005 75.363L83.4928 79.9773C84.2354 80.4061 84.6928 81.1984 84.6928 82.0558V91.2845C84.6928 92.142 84.2354 92.9343 83.4928 93.363L75.5005 97.9773C74.758 98.4061 73.8431 98.4061 73.1005 97.9773L65.1082 93.363C64.3657 92.9343 63.9082 92.142 63.9082 91.2845V82.0558C63.9082 81.1984 64.3657 80.4061 65.1082 79.9773L73.1005 75.363C73.8431 74.9343 74.758 74.9343 75.5005 75.363Z" fill="url(#paint3_linear_0_1)"/>
<path opacity="0.5" d="M75.5005 75.363L83.4928 79.9773C84.2354 80.4061 84.6928 81.1984 84.6928 82.0558V91.2845C84.6928 92.142 84.2354 92.9343 83.4928 93.363L75.5005 97.9773C74.758 98.4061 73.8431 98.4061 73.1005 97.9773L65.1082 93.363C64.3657 92.9343 63.9082 92.142 63.9082 91.2845V82.0558C63.9082 81.1984 64.3657 80.4061 65.1082 79.9773L73.1005 75.363C73.8431 74.9343 74.758 74.9343 75.5005 75.363Z" fill="url(#paint4_linear_0_1)"/>
<path fill-rule="evenodd" clip-rule="evenodd" d="M22.9802 19.825L36.3002 27.515C36.9082 27.8661 37.4132 28.371 37.7643 28.9791C38.1153 29.5872 38.3002 30.2769 38.3002 30.979V46.361C38.3002 47.0632 38.1153 47.7529 37.7643 48.361C37.4132 48.969 36.9082 49.474 36.3002 49.825L22.9802 57.515C22.3721 57.8661 21.6823 58.0509 20.9802 58.0509C20.278 58.0509 19.5883 57.8661 18.9802 57.515L5.66019 49.825C5.05212 49.474 4.54718 48.969 4.19611 48.361C3.84504 47.7529 3.6602 47.0632 3.66019 46.361V30.979C3.6602 30.2769 3.84504 29.5872 4.19611 28.9791C4.54718 28.371 5.05212 27.8661 5.66019 27.515L18.9802 19.825C19.5883 19.474 20.278 19.2891 20.9802 19.2891C21.6823 19.2891 22.3721 19.474 22.9802 19.825Z" fill="#FFC82D"/>
<g clip-path="url(#clip0_0_1)">
<g clip-path="url(#clip1_0_1)">
<path fill-rule="evenodd" clip-rule="evenodd" d="M23.7115 18.9981L37.4744 26.9437C38.1027 27.3065 38.6244 27.8282 38.9872 28.4565C39.3499 29.0848 39.5409 29.7974 39.5409 30.5229V46.4164C39.5409 47.1418 39.3499 47.8545 38.9872 48.4828C38.6244 49.1111 38.1027 49.6328 37.4744 49.9956L23.7115 57.9412C23.0832 58.304 22.3705 58.495 21.645 58.495C20.9195 58.495 20.2068 58.304 19.5785 57.9412L5.81561 49.9956C5.18733 49.6328 4.6656 49.1111 4.30286 48.4828C3.94011 47.8545 3.74913 47.1418 3.74911 46.4164V30.5229C3.74913 29.7974 3.94011 29.0848 4.30286 28.4565C4.6656 27.8282 5.18733 27.3065 5.81561 26.9437L19.5785 18.9981C20.2068 18.6353 20.9195 18.4443 21.645 18.4443C22.3705 18.4443 23.0832 18.6353 23.7115 18.9981Z" fill="url(#paint5_linear_0_1)"/>
<path fill-rule="evenodd" clip-rule="evenodd" d="M25.9826 45.1002C24.7675 45.5394 23.6402 45.373 23.1391 45.3069C22.7671 45.252 22.397 45.1851 22.0294 45.1064L21.2906 47.8621L19.594 47.4075L20.3204 44.6962L19.0288 44.3501L18.3024 47.0613L16.6058 46.6067L17.3322 43.8955L13.9948 43.0007L14.8896 41.0561L15.9043 41.3289C16.2452 41.4198 16.3961 41.426 16.5748 41.3299C16.7536 41.2328 16.8404 41.0354 16.8848 40.8691L18.7653 33.8492C18.8842 33.409 18.88 33.2809 18.7385 33.0009C18.5969 32.7198 18.1288 32.5628 17.8612 32.4915L16.8807 32.228L17.3529 30.4674L20.6903 31.3611L21.4187 28.6416L23.1153 29.0962L22.3869 31.8157L23.6784 32.1619L24.4079 29.4424L26.1045 29.897L25.3668 32.6496C26.6108 33.067 27.488 33.5599 28.1462 34.3875C28.9986 35.4569 28.5781 36.8053 28.4665 37.1246C28.356 37.4428 28.046 38.0307 27.6523 38.3583C27.2586 38.6869 26.4527 38.9038 26.4527 38.9038C26.4527 38.9038 27.2297 39.2996 27.6926 39.8906C28.1534 40.4816 28.3766 41.365 28.0501 42.4841C27.7257 43.6041 27.1956 44.6601 25.9826 45.1002ZM22.4613 39.2107C21.6357 38.9307 20.5436 38.6972 20.5436 38.6972L19.5682 42.3363C19.5682 42.3363 20.6872 42.6618 21.4559 42.8085C22.2236 42.9542 23.0512 42.9728 23.4976 42.8622C23.9419 42.7517 24.4999 42.544 24.723 41.7122C24.9462 40.8794 24.4854 40.3824 24.2095 40.1386C23.9357 39.8947 23.2868 39.4918 22.4613 39.2117V39.2107ZM22.4065 37.387C23.0316 37.5286 23.728 37.5627 24.2736 37.4284C24.8191 37.294 25.1994 36.9531 25.3492 36.331C25.499 35.709 25.2273 35.0746 24.5867 34.6737C23.946 34.2728 23.4831 34.1313 22.9541 33.9814C22.4251 33.8316 21.8733 33.7335 21.8733 33.7335L20.9951 37.0089C20.9951 37.0089 21.7824 37.2444 22.4065 37.387Z" fill="white"/>
</g>
</g>
<defs>
<linearGradient id="paint0_linear_0_1" x1="27.6342" y1="19.9072" x2="106.614" y2="107.163" gradientUnits="userSpaceOnUse">
<stop stop-color="white" stop-opacity="0.1"/>
<stop offset="1" stop-color="white" stop-opacity="0.5"/>
</linearGradient>
<linearGradient id="paint1_linear_0_1" x1="24.9802" y1="24.7529" x2="109.366" y2="99.2093" gradientUnits="userSpaceOnUse">
<stop stop-color="white" stop-opacity="0.5"/>
<stop offset="1" stop-color="white" stop-opacity="0.1"/>
</linearGradient>
<linearGradient id="paint2_linear_0_1" x1="96.9111" y1="98.439" x2="78.9177" y2="60.7523" gradientUnits="userSpaceOnUse">
<stop stop-color="white" stop-opacity="0.1"/>
<stop offset="1" stop-color="white" stop-opacity="0.5"/>
</linearGradient>
<linearGradient id="paint3_linear_0_1" x1="78.8669" y1="98.5314" x2="68.0709" y2="75.9194" gradientUnits="userSpaceOnUse">
<stop stop-color="white" stop-opacity="0.1"/>
<stop offset="1" stop-color="white" stop-opacity="0.5"/>
</linearGradient>
<linearGradient id="paint4_linear_0_1" x1="78.8669" y1="98.5314" x2="68.0709" y2="75.9194" gradientUnits="userSpaceOnUse">
<stop stop-color="white" stop-opacity="0.1"/>
<stop offset="1" stop-color="white" stop-opacity="0.5"/>
</linearGradient>
<linearGradient id="paint5_linear_0_1" x1="4122.56" y1="3111.43" x2="854.372" y2="1705" gradientUnits="userSpaceOnUse">
<stop stop-color="#FE9D39"/>
<stop offset="1" stop-color="#FFC82D"/>
</linearGradient>
<clipPath id="clip0_0_1">
<rect width="41.33" height="42" fill="white" transform="translate(0.980011 17.4697)"/>
</clipPath>
<clipPath id="clip1_0_1">
<rect width="41.33" height="42" fill="white" transform="translate(0.980011 17.4697)"/>
</clipPath>
</defs>
</svg>
