<svg width="61" height="121" viewBox="0 0 61 121" fill="none" xmlns="http://www.w3.org/2000/svg">
<rect width="61" height="121" fill="#1E1E1E"/>
<rect width="1920" height="8003.16" transform="translate(-1170 -5023)" fill="white"/>
<rect width="1920" height="8003.16" transform="translate(-1170 -5023)" fill="#1F1B34"/>
<rect width="1920" height="8003.16" transform="translate(-1170 -5023)" fill="#1F2033"/>
<path opacity="0.25" fill-rule="evenodd" clip-rule="evenodd" d="M20.97 105.67C12.7284 95.3335 7.9278 89.2143 6.56839 87.3124C4.52927 84.4595 0.969971 78.2561 0.969971 69.463V19.6699C0.969971 17.4608 2.76083 15.6699 4.96997 15.6699H56.97C59.1791 15.6699 60.97 17.4608 60.97 19.6699V69.463C60.97 78.2561 57.4107 84.4595 55.3716 87.3124C54.0122 89.2143 49.2116 95.3335 40.97 105.67H20.97Z" fill="url(#paint0_linear_0_1)"/>
<g opacity="0.4">
<path d="M31.47 65.1215V64.6094H30.47V65.1215H31.47Z" fill="white"/>
<path d="M31.47 60.5125V59.4883H30.47V60.5125H31.47Z" fill="white"/>
<path d="M31.47 55.3919V54.3677H30.47V55.3919H31.47Z" fill="white"/>
<path d="M31.47 50.2708V49.2466H30.47V50.2708H31.47Z" fill="white"/>
<path d="M31.47 45.1497V44.1255H30.47V45.1497H31.47Z" fill="white"/>
<path d="M31.47 40.0286V39.0044H30.47V40.0286H31.47Z" fill="white"/>
<path d="M31.47 34.908V33.8838H30.47V34.908H31.47Z" fill="white"/>
<path d="M31.47 29.7869V28.7627H30.47V29.7869H31.47Z" fill="white"/>
<path d="M31.47 24.6658V23.6416H30.47V24.6658H31.47Z" fill="white"/>
<path d="M31.47 19.5447V18.5205H30.47V19.5447H31.47Z" fill="white"/>
<path d="M31.47 14.4241V13.3999H30.47V14.4241H31.47Z" fill="white"/>
<path d="M31.47 9.303V8.27881H30.47V9.303H31.47Z" fill="white"/>
<path d="M31.47 4.18202V3.66992H30.47V4.18202H31.47Z" fill="white"/>
<path d="M31.47 118.122V117.585H30.47V118.122H31.47Z" fill="white"/>
<path d="M31.47 113.295V112.222H30.47V113.295H31.47Z" fill="white"/>
<path d="M31.47 107.932V106.86H30.47V107.932H31.47Z" fill="white"/>
<path d="M31.47 102.569V101.497H30.47V102.569H31.47Z" fill="white"/>
<path d="M31.47 97.2062V96.6699H30.47V97.2062H31.47Z" fill="white"/>
</g>
<path opacity="0.25" fill-rule="evenodd" clip-rule="evenodd" d="M30.97 25.6699V65.6699H5.96997C5.41769 65.6699 4.96997 65.2222 4.96997 64.6699V26.6699C4.96997 26.1176 5.41769 25.6699 5.96997 25.6699H30.97Z" fill="url(#paint1_linear_0_1)"/>
<path opacity="0.5" fill-rule="evenodd" clip-rule="evenodd" d="M55.97 25.6699C56.5223 25.6699 56.97 26.1176 56.97 26.6699V64.6699C56.97 65.2222 56.5223 65.6699 55.97 65.6699H30.97V25.6699H55.97Z" fill="url(#paint2_linear_0_1)"/>
<path d="M10.97 52.6699H40.97V55.6699H10.97V52.6699Z" fill="#FFC82D"/>
<g style="mix-blend-mode:overlay" opacity="0.4">
<path d="M10.97 52.6699H40.97V55.6699H10.97V52.6699Z" fill="white"/>
</g>
<path d="M10.97 43.6699H50.97V46.6699H10.97V43.6699Z" fill="#FFC82D"/>
<path fill-rule="evenodd" clip-rule="evenodd" d="M10.97 34.6699H50.97V37.6699H10.97V34.6699Z" fill="#FE9D39"/>
<path opacity="0.5" fill-rule="evenodd" clip-rule="evenodd" d="M35.2146 78.1995H36.97V87.7824H36.9579L30.9702 90.6699L24.9821 87.7824H24.97V78.1995H26.7262V76.8542C26.7262 74.5472 28.6307 72.6699 30.971 72.6699C33.3102 72.6699 35.2146 74.5472 35.2146 76.8542V78.1995ZM34.5551 86.1887V80.4481H27.3849V86.1887L30.9702 87.9135L34.5551 86.1887ZM28.9034 76.8542V78.1995H33.0375V76.8542C33.0375 75.7864 32.1098 74.9176 30.971 74.9176C29.831 74.9176 28.9034 75.7864 28.9034 76.8542Z" fill="url(#paint3_linear_0_1)"/>
<defs>
<linearGradient id="paint0_linear_0_1" x1="44.8367" y1="106.57" x2="-5.75857" y2="31.4211" gradientUnits="userSpaceOnUse">
<stop stop-color="white" stop-opacity="0.1"/>
<stop offset="1" stop-color="white" stop-opacity="0.5"/>
</linearGradient>
<linearGradient id="paint1_linear_0_1" x1="23.6822" y1="66.0699" x2="1.77426" y2="32.6959" gradientUnits="userSpaceOnUse">
<stop stop-color="white" stop-opacity="0.1"/>
<stop offset="1" stop-color="white" stop-opacity="0.5"/>
</linearGradient>
<linearGradient id="paint2_linear_0_1" x1="49.6822" y1="66.0699" x2="27.7743" y2="32.6959" gradientUnits="userSpaceOnUse">
<stop stop-color="white" stop-opacity="0.1"/>
<stop offset="1" stop-color="white" stop-opacity="0.5"/>
</linearGradient>
<linearGradient id="paint3_linear_0_1" x1="28.3033" y1="72.6699" x2="40.7299" y2="91.0732" gradientUnits="userSpaceOnUse">
<stop stop-color="white" stop-opacity="0.5"/>
<stop offset="1" stop-color="white" stop-opacity="0.1"/>
</linearGradient>
</defs>
</svg>
