<svg width="113" height="121" viewBox="0 0 113 121" fill="none" xmlns="http://www.w3.org/2000/svg">
<rect width="113" height="121" fill="#1E1E1E"/>
<g id="www.exodus.com by html.to.design &#226;&#157;&#164;&#239;&#184;&#143; FREE version - 22/08/2024, 14:54:37 GMT-4">
<rect width="1920" height="8003.16" transform="translate(-375 -5023)" fill="white"/>
<rect width="1920" height="8003.16" transform="translate(-375 -5023)" fill="#1F1B34"/>
<g id="Background">
<rect width="1920" height="8003.16" transform="translate(-375 -5023)" fill="#1F2033"/>
<g id="Main">
<g id="Section">
<g id="Container">
<g id="List">
<g id="Item">
<g id="Container_2">
<g id="SVG">
<path id="Vector" opacity="0.5" fill-rule="evenodd" clip-rule="evenodd" d="M83.3977 42.2134L38.0671 66.1587L42.1753 93.2697L83.3977 42.2134Z" fill="url(#paint0_linear_0_1)"/>
<path id="Vector_2" opacity="0.5" fill-rule="evenodd" clip-rule="evenodd" d="M90.3698 31.104L42.1753 69.3182V93.2697L90.3698 31.104Z" fill="url(#paint1_linear_0_1)"/>
<g id="Group" opacity="0.25">
<path id="Vector_3" d="M22.7063 55.0555L90.3698 31.104C90.3698 31.104 80.9909 38.5406 62.2331 53.414L37.8541 66.1525L22.7063 55.0555Z" fill="white"/>
</g>
<path id="Vector_4" opacity="0.25" d="M22.7063 55.0555L90.3698 31.104C90.3698 31.104 80.9909 38.5406 62.2331 53.414L37.8541 66.1525L22.7063 55.0555Z" fill="url(#paint2_linear_0_1)"/>
<path id="Vector_5" d="M54.4614 59.5767L42.1753 69.3186L75.7229 93.8951C76.2775 94.3013 77.0018 94.3943 77.641 94.1413C78.2801 93.8883 78.7446 93.3247 78.8708 92.649L81.394 79.1444L54.4614 59.5767Z" fill="#FE9D39"/>
<path id="Vector_6" d="M64.5708 51.5605L83.921 65.6193L81.394 79.1441L54.4614 59.5765L64.5708 51.5605Z" fill="#FFC82D"/>
<path id="Vector_7" d="M83.921 65.6192L64.5708 51.5604L90.3698 31.104L83.921 65.6192Z" fill="#FFC82D"/>
<g id="Group_2" style="mix-blend-mode:overlay" opacity="0.4">
<path id="Vector_8" d="M83.921 65.6192L64.5708 51.5604L90.3698 31.104L83.921 65.6192Z" fill="white"/>
</g>
<g id="Group_3" opacity="0.4">
<path id="Vector_9" d="M104.169 27.1415L103.688 27.3113L103.355 26.3685L103.836 26.1987L104.169 27.1415Z" fill="white"/>
<path id="Vector_10" d="M99.6994 28.7207L98.7382 29.0603L98.4051 28.1174L99.3663 27.7778L99.6994 28.7207Z" fill="white"/>
<path id="Vector_11" d="M94.7493 30.4698L93.7881 30.8094L93.455 29.8665L94.4162 29.5269L94.7493 30.4698Z" fill="white"/>
<path id="Vector_12" d="M89.7992 32.2188L88.838 32.5584L88.5049 31.6155L89.466 31.2759L89.7992 32.2188Z" fill="white"/>
<path id="Vector_13" d="M84.8491 33.9678L83.8879 34.3074L83.5547 33.3645L84.5159 33.0249L84.8491 33.9678Z" fill="white"/>
<path id="Vector_14" d="M79.8989 35.7167L78.9378 36.0563L78.6046 35.1135L79.5658 34.7739L79.8989 35.7167Z" fill="white"/>
<path id="Vector_15" d="M74.9488 37.4654L73.9876 37.805L73.6545 36.8621L74.6157 36.5225L74.9488 37.4654Z" fill="white"/>
<path id="Vector_16" d="M69.9987 39.2144L69.0375 39.554L68.7044 38.6111L69.6656 38.2715L69.9987 39.2144Z" fill="white"/>
<path id="Vector_17" d="M65.0486 40.9634L64.0874 41.303L63.7543 40.3601L64.7155 40.0205L65.0486 40.9634Z" fill="white"/>
<path id="Vector_18" d="M60.0985 42.7124L59.1373 43.052L58.8042 42.1091L59.7654 41.7695L60.0985 42.7124Z" fill="white"/>
<path id="Vector_19" d="M55.1484 44.4614L54.1872 44.801L53.854 43.8582L54.8152 43.5186L55.1484 44.4614Z" fill="white"/>
<path id="Vector_20" d="M50.1983 46.2105L49.2371 46.5501L48.9039 45.6072L49.8651 45.2676L50.1983 46.2105Z" fill="white"/>
<path id="Vector_21" d="M45.2481 47.9595L44.287 48.2991L43.9538 47.3562L44.915 47.0166L45.2481 47.9595Z" fill="white"/>
<path id="Vector_22" d="M40.298 49.708L39.3368 50.0476L39.0037 49.1047L39.9649 48.7651L40.298 49.708Z" fill="white"/>
<path id="Vector_23" d="M35.3479 51.4571L34.3867 51.7967L34.0536 50.8538L35.0148 50.5142L35.3479 51.4571Z" fill="white"/>
<path id="Vector_24" d="M30.3978 53.206L29.4366 53.5456L29.1035 52.6028L30.0647 52.2632L30.3978 53.206Z" fill="white"/>
<path id="Vector_25" d="M25.4477 54.9551L24.4865 55.2947L24.1534 54.3518L25.1146 54.0122L25.4477 54.9551Z" fill="white"/>
<path id="Vector_26" d="M20.4976 56.7041L19.5364 57.0437L19.2032 56.1008L20.1644 55.7612L20.4976 56.7041Z" fill="white"/>
<path id="Vector_27" d="M15.5475 58.4532L14.5863 58.7928L14.2531 57.8499L15.2143 57.5103L15.5475 58.4532Z" fill="white"/>
<path id="Vector_28" d="M10.5973 60.2022L9.63617 60.5418L9.30304 59.5989L10.2642 59.2593L10.5973 60.2022Z" fill="white"/>
<path id="Vector_29" d="M5.64722 61.9511L5.16663 62.1209L4.8335 61.1781L5.31409 61.0083L5.64722 61.9511Z" fill="white"/>
<path id="Vector_30" d="M9.06382 44.8058L8.65314 44.4981L9.25279 43.6978L9.66347 44.0055L9.06382 44.8058Z" fill="white"/>
<path id="Vector_31" d="M13.2938 47.9753L12.4724 47.3599L13.0721 46.5596L13.8934 47.1751L13.2938 47.9753Z" fill="white"/>
<path id="Vector_32" d="M17.5237 51.1447L16.7024 50.5293L17.302 49.729L18.1234 50.3445L17.5237 51.1447Z" fill="white"/>
<path id="Vector_33" d="M21.7537 54.3146L20.9323 53.6991L21.532 52.8989L22.3533 53.5143L21.7537 54.3146Z" fill="white"/>
<path id="Vector_34" d="M25.9837 57.4842L25.1623 56.8687L25.762 56.0684L26.5833 56.6839L25.9837 57.4842Z" fill="white"/>
<path id="Vector_35" d="M30.2136 60.6535L29.3923 60.0381L29.9919 59.2378L30.8133 59.8533L30.2136 60.6535Z" fill="white"/>
<path id="Vector_36" d="M34.4436 63.8229L33.6222 63.2074L34.2219 62.4072L35.0432 63.0226L34.4436 63.8229Z" fill="white"/>
<path id="Vector_37" d="M38.2629 66.6852L37.8522 66.3774L38.4519 65.5771L38.8625 65.8849L38.2629 66.6852Z" fill="white"/>
</g>
</g>
</g>
</g>
</g>
</g>
</g>
</g>
</g>
</g>
<defs>
<linearGradient id="paint0_linear_0_1" x1="42.8657" y1="42.2134" x2="84.7402" y2="88.9147" gradientUnits="userSpaceOnUse">
<stop stop-color="white" stop-opacity="0.1"/>
<stop offset="1" stop-color="white" stop-opacity="0.5"/>
</linearGradient>
<linearGradient id="paint1_linear_0_1" x1="51.7895" y1="31.104" x2="93.4943" y2="84.3713" gradientUnits="userSpaceOnUse">
<stop stop-color="white" stop-opacity="0.1"/>
<stop offset="1" stop-color="white" stop-opacity="0.5"/>
</linearGradient>
<linearGradient id="paint2_linear_0_1" x1="91.7231" y1="53.4241" x2="33.2242" y2="23.4198" gradientUnits="userSpaceOnUse">
<stop stop-color="white" stop-opacity="0.1"/>
<stop offset="1" stop-color="white" stop-opacity="0.5"/>
</linearGradient>
</defs>
</svg>
