<svg width="24" height="25" viewBox="0 0 24 25" fill="none" xmlns="http://www.w3.org/2000/svg">
<path d="M17 0.390015H7C6.20435 0.390015 5.44129 0.706085 4.87868 1.26869C4.31607 1.8313 4 2.59436 4 3.39001V21.39C4 22.1856 4.31607 22.9487 4.87868 23.5113C5.44129 24.0739 6.20435 24.39 7 24.39H17C17.7956 24.39 18.5587 24.0739 19.1213 23.5113C19.6839 22.9487 20 22.1856 20 21.39V3.39001C20 2.59436 19.6839 1.8313 19.1213 1.26869C18.5587 0.706085 17.7956 0.390015 17 0.390015ZM18 21.39C18 21.6552 17.8946 21.9096 17.7071 22.0971C17.5196 22.2846 17.2652 22.39 17 22.39H7C6.73478 22.39 6.48043 22.2846 6.29289 22.0971C6.10536 21.9096 6 21.6552 6 21.39V3.39001C6 3.12479 6.10536 2.87044 6.29289 2.6829C6.48043 2.49537 6.73478 2.39001 7 2.39001H17C17.2652 2.39001 17.5196 2.49537 17.7071 2.6829C17.8946 2.87044 18 3.12479 18 3.39001V21.39Z" fill="white"/>
<path d="M9.85355 3.24356L9 2.39001H15L14.1464 3.24356C14.0527 3.33733 13.9255 3.39001 13.7929 3.39001H10.2071C10.0745 3.39001 9.94732 3.33733 9.85355 3.24356Z" stroke="white"/>
<path d="M12 20.39C12.5523 20.39 13 19.9423 13 19.39C13 18.8377 12.5523 18.39 12 18.39C11.4477 18.39 11 18.8377 11 19.39C11 19.9423 11.4477 20.39 12 20.39Z" fill="white"/>
</svg>
