<svg width="1244" height="44" viewBox="0 0 1244 44" xmlns="http://www.w3.org/2000/svg">
<rect width="100%" height="100%" fill="red"/>
<path fill-rule="evenodd" clip-rule="evenodd" d="M30 18.066H27.66L27.659 18.067V16.347C27.659 13.4 25.12 11 22.002 11C18.881 11 16.342 13.4 16.342 16.346V18.066H14V30.31H14.016L22 34L29.984 30.31H30V18.066ZM26.78 20.94V28.274L22 30.478L17.22 28.275V20.94H26.78ZM19.245 18.067V16.347C19.245 14.982 20.481 13.872 22.001 13.872C23.52 13.872 24.757 14.982 24.757 16.347V18.067H19.245Z" fill="white"/>
<path d="M64 15V25H62V14C62 13.7348 62.1054 13.4804 62.2929 13.2929C62.4804 13.1054 62.7348 13 63 13H81C81.2652 13 81.5196 13.1054 81.7071 13.2929C81.8946 13.4804 82 13.7348 82 14V25H80V15H64ZM75 26V28H69V26H60V29C60 29.2652 60.1054 29.5196 60.2929 29.7071C60.4804 29.8946 60.7348 30 61 30H83C83.2652 30 83.5196 29.8946 83.7071 29.7071C83.8946 29.5196 84 29.2652 84 29V26H75ZM122 19.435L113.99 15.913L121.64 12.566C121.82 12.478 122.09 12.478 122.36 12.566L130.01 15.913L122 19.435ZM131 17.41L122.9 20.932V31.5L130.46 28.242C130.82 28.065 131 27.801 131 27.45V17.41ZM121.1 20.932V31.5L113.54 28.242C113.18 28.154 113 27.802 113 27.449V17.41L121.1 20.932Z" fill="white"/>
<path fill-rule="evenodd" clip-rule="evenodd" d="M181 18V24C181 24.6 180.6 25 180 25H164C163.4 25 163 24.6 163 24V18C163 17.4 163.4 17 164 17H168V14C168 13.4 168.4 13 169 13H175C175.6 13 176 13.4 176 14V17H180C180.6 17 181 17.4 181 18ZM174 15H170V17H174V15Z" fill="white"/>
<path d="M164 26H180V30C180 30.6 179.6 31 179 31H165C164.4 31 164 30.6 164 30V26ZM230 15H214C213.735 15 213.48 15.1054 213.293 15.2929C213.105 15.4804 213 15.7348 213 16V27C213 27.1314 213.025 27.2616 213.076 27.383C213.126 27.5044 213.199 27.6148 213.292 27.7077C213.385 27.8006 213.496 27.8743 213.617 27.9244C213.738 27.9746 213.869 28.0003 214 28H218V33L224 28H230C230.265 28 230.52 27.8946 230.707 27.7071C230.895 27.5196 231 27.2652 231 27V16C231 15.8686 230.975 15.7385 230.924 15.617C230.874 15.4956 230.801 15.3852 230.708 15.2923C230.615 15.1994 230.504 15.1257 230.383 15.0756C230.262 15.0254 230.131 14.9997 230 15Z" fill="white"/>
<path fill-rule="evenodd" clip-rule="evenodd" d="M266 11H278C278.53 11 279.039 11.2107 279.414 11.5858C279.789 11.9609 280 12.4696 280 13V31C280 31.5304 279.789 32.0391 279.414 32.4142C279.039 32.7893 278.53 33 278 33H266C265.47 33 264.961 32.7893 264.586 32.4142C264.211 32.0391 264 31.5304 264 31V13C264 12.4696 264.211 11.9609 264.586 11.5858C264.961 11.2107 265.47 11 266 11ZM266 13V31H278V13H276L275.276 14.447C275.193 14.6127 275.065 14.7521 274.907 14.8497C274.749 14.9473 274.568 14.9993 274.382 15H269.618C269.432 14.9999 269.25 14.9481 269.092 14.8504C268.935 14.7528 268.807 14.6131 268.724 14.447L268 13H266Z" fill="white"/>
<path d="M320.697 23.294H315.894L315.251 25.327L320.714 28.877V32L312.18 26.433L313.572 22.009L312.18 17.584L320.697 12V15.122L315.251 18.672L315.876 20.706H320.697V23.294ZM331.82 17.584L323.303 12V15.122L328.767 18.672L328.124 20.706H323.303V23.294H328.124L328.767 25.327L323.303 28.877V32L331.82 26.433L330.428 22.009L331.82 17.584Z" fill="white"/>
<path fill-rule="evenodd" clip-rule="evenodd" d="M372 34C365.372 34 360 28.628 360 22C360 15.372 365.372 10 372 10C378.628 10 384 15.372 384 22C384 28.628 378.628 34 372 34ZM365.747 31.145C367.588 32.4071 369.768 33.0808 372 33.077C374.32 33.077 376.473 32.363 378.253 31.145L374.194 27.087C373.501 27.3856 372.754 27.5391 372 27.538C371.245 27.5389 370.499 27.385 369.806 27.086L365.747 31.145ZM362.855 28.253L366.913 24.194C366.614 23.5012 366.461 22.7545 366.462 22C366.462 21.22 366.623 20.48 366.914 19.806L362.854 15.747C361.593 17.5881 360.92 19.7684 360.924 22C360.924 24.32 361.637 26.473 362.855 28.253ZM365.747 12.856L369.806 16.913C370.499 16.6147 371.246 16.4616 372 16.463C372.754 16.4619 373.501 16.6154 374.194 16.914L378.253 12.855C376.412 11.5929 374.232 10.9192 372 10.923C369.68 10.923 367.527 11.638 365.747 12.856ZM381.144 15.747L377.087 19.807C377.386 20.5 377.539 21.246 377.538 22C377.539 22.7545 377.385 23.5013 377.086 24.194L381.145 28.254C382.407 26.4129 383.081 24.2322 383.077 22C383.077 19.68 382.362 17.527 381.144 15.747ZM372 26.615C372.913 26.6158 373.806 26.3457 374.565 25.8387C375.325 25.3318 375.917 24.6108 376.266 23.7672C376.616 22.9236 376.707 21.9953 376.528 21.0998C376.35 20.2044 375.909 19.382 375.263 18.737C374.618 18.0907 373.796 17.6504 372.9 17.4718C372.005 17.2933 371.076 17.3845 370.233 17.7339C369.389 18.0833 368.668 18.6752 368.161 19.4346C367.654 20.1941 367.384 21.0869 367.385 22C367.385 22.6061 367.504 23.2064 367.736 23.7664C367.968 24.3264 368.308 24.8353 368.736 25.2639C369.165 25.6925 369.674 26.0324 370.234 26.2642C370.794 26.4961 371.394 26.6153 372 26.615ZM423.155 11.061L430.845 15.525C431.197 15.7296 431.488 16.0229 431.691 16.3756C431.894 16.7284 432 17.1282 432 17.535V26.465C432 27.295 431.56 28.06 430.845 28.475L423.155 32.939C422.804 33.1427 422.406 33.25 422 33.25C421.594 33.25 421.196 33.1427 420.845 32.939L413.155 28.475C412.803 28.2704 412.512 27.9771 412.309 27.6244C412.106 27.2716 412 26.8718 412 26.465V17.535C412 16.706 412.44 15.94 413.155 15.525L420.845 11.061C421.196 10.8573 421.594 10.75 422 10.75C422.406 10.75 422.804 10.8573 423.155 11.061ZM421.243 23.528L418.414 20.7L417 22.114L421.243 26.357L427.607 19.992L426.192 18.578L421.243 23.528Z" fill="white"/>
<path fill-rule="evenodd" clip-rule="evenodd" d="M974.83 12.139L968.17 21.028H972.33V31.028C972.33 31.488 972.71 31.861 973.17 31.861H976.5C976.609 31.861 976.717 31.8394 976.818 31.7975C976.919 31.7556 977.011 31.6942 977.088 31.6168C977.165 31.5394 977.226 31.4475 977.268 31.3465C977.309 31.2455 977.33 31.1372 977.33 31.028V21.028H981.5L974.83 12.138V12.139ZM964.83 31.861H968.17C968.279 31.861 968.387 31.8394 968.488 31.7975C968.589 31.7556 968.681 31.6942 968.758 31.6168C968.835 31.5394 968.896 31.4475 968.938 31.3465C968.979 31.2455 969 31.1372 969 31.028V25.195C969.001 25.0856 968.979 24.9773 968.938 24.8761C968.897 24.7749 968.835 24.683 968.758 24.6055C968.681 24.528 968.589 24.4665 968.489 24.4245C968.388 24.3826 968.279 24.361 968.17 24.361H964.83C964.721 24.361 964.612 24.3826 964.511 24.4245C964.411 24.4665 964.319 24.528 964.242 24.6055C964.165 24.683 964.103 24.7749 964.062 24.8761C964.021 24.9773 963.999 25.0856 964 25.195V31.028C964 31.488 964.37 31.861 964.83 31.861ZM1015.47 19.622H1014.77C1014.64 19.6202 1014.5 19.6452 1014.38 19.6955C1014.25 19.7458 1014.14 19.8204 1014.04 19.915C1013.95 20.011 1013.87 20.125 1013.82 20.25C1013.77 20.376 1013.75 20.51 1013.75 20.645V31.477C1013.75 32.035 1014.21 32.5 1014.77 32.5H1028.73C1029.29 32.5 1029.75 32.035 1029.75 31.478V20.598C1029.75 20.04 1029.29 19.575 1028.73 19.575H1028.03V18.041C1028.03 16.325 1027.37 14.675 1026.18 13.439C1026.14 13.395 1026.09 13.35 1026.05 13.305L1025.9 13.159C1023.44 10.835 1019.59 10.975 1017.27 13.439C1016.11 14.6931 1015.47 16.3361 1015.47 18.042V19.622ZM1026.09 19.622H1017.41V18.041C1017.41 16.831 1017.88 15.667 1018.71 14.787C1018.76 14.74 1018.85 14.647 1018.9 14.554C1020.57 13.02 1023.21 13.113 1024.79 14.787C1025.62 15.6666 1026.09 16.8309 1026.09 18.042V19.622ZM1019.59 29.664L1020.8 26.456C1020.38 26.27 1020.01 25.898 1019.78 25.433C1019.22 24.318 1019.64 22.969 1020.75 22.411C1021.87 21.854 1023.21 22.272 1023.77 23.388C1024.32 24.504 1023.91 25.852 1022.79 26.41L1023.91 29.664H1019.59Z" fill="white"/>
<path d="M1067.72 25.15V20.128H1065.8V18.85H1071.02V20.128H1069.1V25.15H1067.72ZM1071.59 25.15V18.85H1073.08L1074.74 21.514L1076.39 18.85H1077.89V25.15H1076.51V21.037L1074.74 23.728H1074.7L1072.94 21.064V25.15H1071.59Z" fill="white"/>
<path fill-rule="evenodd" clip-rule="evenodd" d="M1072 31.5C1077.25 31.5 1081.5 27.247 1081.5 22C1081.5 16.753 1077.25 12.5 1072 12.5C1066.75 12.5 1062.5 16.753 1062.5 22C1062.5 27.247 1066.75 31.5 1072 31.5ZM1072 33C1078.08 33 1083 28.075 1083 22C1083 15.925 1078.08 11 1072 11C1065.92 11 1061 15.925 1061 22C1061 28.075 1065.92 33 1072 33Z" fill="white"/>
<path opacity="0.6" d="M1112.71 28.762C1112.34 28.5475 1112.04 28.2416 1111.82 27.874C1111.61 27.5046 1111.5 27.0869 1111.5 26.662V17.337C1111.5 16.471 1111.96 15.671 1112.71 15.237L1115.72 13.503V28.863C1115.72 29.342 1115.84 29.812 1116.07 30.23C1116.3 30.649 1116.63 31.002 1117.04 31.257L1117.13 31.312L1112.71 28.762ZM1120.79 10.576C1121.16 10.3623 1121.57 10.2498 1122 10.2498C1122.43 10.2498 1122.84 10.3623 1123.21 10.576L1131.29 15.238C1131.66 15.451 1131.96 15.757 1132.17 16.125C1132.39 16.495 1132.5 16.912 1132.5 17.338V20.808L1119.2 13.126C1118.79 12.8889 1118.32 12.7589 1117.84 12.748C1117.36 12.739 1116.89 12.851 1116.46 13.074L1116.37 13.126L1120.79 10.576Z" fill="white"/>
<path opacity="0.5" d="M1132.5 26.663C1132.5 27.529 1132.04 28.33 1131.29 28.763L1123.21 33.424C1122.84 33.6377 1122.43 33.7503 1122 33.7503C1121.57 33.7503 1121.16 33.6377 1120.79 33.424L1117.78 31.69L1131.09 24.01C1131.5 23.77 1131.85 23.43 1132.09 23.021C1132.34 22.612 1132.48 22.147 1132.5 21.669V21.561V26.663Z" fill="white"/>
<path d="M1123.71 33.424C1123.34 33.6377 1122.93 33.7502 1122.5 33.7502C1122.07 33.7502 1121.66 33.6377 1121.29 33.424L1113.21 28.762C1112.84 28.5478 1112.54 28.2423 1112.32 27.875C1112.11 27.5056 1112 27.0879 1112 26.663V23.193L1125.3 30.873C1125.72 31.1121 1126.18 31.2423 1126.66 31.2516C1127.14 31.2608 1127.62 31.1488 1128.04 30.926L1128.13 30.874L1123.71 33.424ZM1131.79 15.237C1132.16 15.45 1132.46 15.757 1132.68 16.125C1132.89 16.494 1133 16.912 1133 17.337V26.662C1133 27.528 1132.54 28.328 1131.79 28.762L1128.78 30.496V15.136C1128.78 14.658 1128.66 14.187 1128.43 13.769C1128.2 13.3491 1127.87 12.9957 1127.46 12.743L1127.37 12.687L1131.79 15.237ZM1112 17.337C1112 16.471 1112.46 15.671 1113.21 15.237L1121.29 10.576C1121.66 10.3623 1122.07 10.2498 1122.5 10.2498C1122.93 10.2498 1123.34 10.3623 1123.71 10.576L1126.72 12.311L1113.41 19.991C1113 20.23 1112.65 20.57 1112.41 20.979C1112.16 21.389 1112.02 21.853 1112 22.331V22.439V17.337Z" fill="white"/>
<path fill-rule="evenodd" clip-rule="evenodd" d="M1122.62 18.28V21.367L1125.71 21.368V22.604L1122.62 22.603V26.306L1121.38 25.593V22.603H1118.29V21.368H1121.38V18.28H1122.62Z" fill="white"/>
<path d="M467.775 31.225L481.151 22.418C481.256 22.3497 481.331 22.2443 481.362 22.1228C481.392 22.0014 481.376 21.8729 481.316 21.763C481.277 21.6898 481.22 21.6276 481.151 21.582L467.775 12.775C467.7 12.7257 467.612 12.6977 467.522 12.6939C467.432 12.6901 467.343 12.7107 467.263 12.7535C467.184 12.7963 467.117 12.8597 467.071 12.9371C467.025 13.0144 467 13.1028 467 13.193V30.807C467 30.8971 467.025 30.9854 467.071 31.0628C467.117 31.1402 467.183 31.2038 467.262 31.247C467.342 31.29 467.431 31.3106 467.522 31.3067C467.612 31.3028 467.699 31.2746 467.775 31.225ZM522.186 11C523.929 10.9998 525.647 11.4137 527.198 12.2076C528.75 13.0014 530.09 14.1526 531.11 15.5662C532.129 16.9797 532.798 18.6153 533.061 20.338C533.324 22.0608 533.175 23.8215 532.624 25.475H529.335V16.218L522.185 23.369L515.038 16.219V25.473H511.75C510.919 22.9786 511.009 20.2689 512.005 17.8354C513 15.4019 514.835 13.4058 517.176 12.209C518.727 11.4151 520.444 11.0007 522.186 11Z" fill="white"/>
<path d="M526.762 21.892L521.999 26.657L517.236 21.892V27.716H512.602C513.583 29.3293 514.963 30.6629 516.608 31.5883C518.254 32.5137 520.11 32.9999 521.999 32.9999C523.887 32.9999 525.743 32.5137 527.389 31.5883C529.034 30.6629 530.414 29.3293 531.395 27.716H526.762V21.892ZM573.001 12H581.001V20H573.001V12ZM566.001 29H569.001V27H566.001V24H564.001V27H561.001V29H564.001V32H566.001V29ZM565.001 20C562.796 20 561.001 18.205 561.001 16C561.001 13.795 562.796 12 565.001 12C567.206 12 569.001 13.795 569.001 16C569.001 18.205 567.206 20 565.001 20ZM577.001 24L572.001 32H582.001L577.001 24ZM620.129 30L622.689 28H628.001C628.531 28 629.04 27.7893 629.415 27.4142C629.79 27.0391 630.001 26.5304 630.001 26V18H632.001C632.266 18 632.521 18.1054 632.708 18.2929C632.896 18.4804 633.001 18.7348 633.001 19V29C633.001 29.1314 632.976 29.2616 632.925 29.383C632.875 29.5044 632.802 29.6148 632.709 29.7077C632.616 29.8006 632.506 29.8743 632.384 29.9244C632.263 29.9746 632.132 30.0003 632.001 30H630.001V34L624.001 30H620.129Z" fill="white"/>
<path d="M627 14H612C611.735 14 611.48 14.1053 611.293 14.2929C611.105 14.4804 611 14.7348 611 15V25C611 25.1314 611.025 25.2615 611.076 25.383C611.126 25.5044 611.199 25.6148 611.292 25.7077C611.385 25.8006 611.496 25.8742 611.617 25.9244C611.738 25.9746 611.869 26.0002 612 26H615V31.47L622 26H627C627.265 26 627.52 25.8946 627.707 25.7071C627.895 25.5196 628 25.2652 628 25V15C628 14.8686 627.975 14.7384 627.924 14.617C627.874 14.4955 627.801 14.3852 627.708 14.2923C627.615 14.1994 627.504 14.1257 627.383 14.0756C627.262 14.0254 627.131 13.9997 627 14ZM680.566 12.435C680.913 12.435 681.174 12.522 681.348 12.695C681.522 12.87 681.609 13.131 681.609 13.392C681.598 13.4535 681.587 13.5151 681.578 13.577C681.427 14.514 680.777 18.547 679.167 22.269C674.527 23.853 672.081 24.733 671.829 24.912C671.536 25.119 671.536 25.272 671.829 25.374L677.774 24.948C677.305 25.705 676.754 26.408 676.131 27.044C674.391 28.783 672.305 29.652 670.044 29.652C668.494 29.652 667.252 29.27 666.529 28.936L666.392 28.87L663.957 31.305C663.88 31.3896 663.786 31.4566 663.681 31.5015C663.576 31.5464 663.462 31.568 663.348 31.565C663.143 31.565 662.991 31.511 662.808 31.445L662.773 31.433C662.75 31.4251 662.727 31.4171 662.704 31.409L662.678 31.4L662.652 31.392C662.5 31.2481 662.408 31.0526 662.393 30.844C662.378 30.6354 662.442 30.4289 662.572 30.265L662.652 30.175L665.174 27.652L673.631 19.619C673.863 19.387 670.871 21.399 664.652 25.652C664.218 23.565 664.392 20.609 667.087 17.912C667.712 17.289 668.482 16.724 669.336 16.217C669.468 16.292 669.586 16.385 669.693 16.493C670.25 17.063 670.241 18.141 670.236 18.822C670.232 19.312 670.229 19.597 670.443 19.335C670.81 18.885 671.444 17.505 671.388 15.163C675.095 13.498 679.354 12.671 680.356 12.477L680.445 12.46L680.566 12.435ZM719.372 23.968H712.372C712.239 23.968 712.112 24.0207 712.018 24.1144C711.925 24.2082 711.872 24.3354 711.872 24.468V31.468C711.872 31.6006 711.925 31.7278 712.018 31.8215C712.112 31.9153 712.239 31.968 712.372 31.968H719.372C719.505 31.968 719.632 31.9153 719.726 31.8215C719.819 31.7278 719.872 31.6006 719.872 31.468V24.468C719.872 24.3354 719.819 24.2082 719.726 24.1144C719.632 24.0207 719.505 23.968 719.372 23.968ZM731.372 23.968H724.372C724.239 23.968 724.112 24.0207 724.018 24.1144C723.925 24.2082 723.872 24.3354 723.872 24.468V31.468C723.872 31.6006 723.925 31.7278 724.018 31.8215C724.112 31.9153 724.239 31.968 724.372 31.968H731.372C731.505 31.968 731.632 31.9153 731.726 31.8215C731.819 31.7278 731.872 31.6006 731.872 31.468V24.468C731.872 24.3354 731.819 24.2082 731.726 24.1144C731.632 24.0207 731.505 23.968 731.372 23.968ZM722.935 15.628L727.532 11.032L732.128 15.628L727.532 20.224L722.935 15.628ZM719.372 11.968H712.372C712.239 11.968 712.112 12.0207 712.018 12.1144C711.925 12.2082 711.872 12.3354 711.872 12.468V19.468C711.872 19.6006 711.925 19.7278 712.018 19.8215C712.112 19.9153 712.239 19.968 712.372 19.968H719.372C719.505 19.968 719.632 19.9153 719.726 19.8215C719.819 19.7278 719.872 19.6006 719.872 19.468V12.468C719.872 12.3354 719.819 12.2082 719.726 12.1144C719.632 12.0207 719.505 11.968 719.372 11.968ZM761.361 21.908L763.704 23.682L771.887 20.045L765.543 25.045V31.181C765.543 31.3674 765.6 31.5493 765.708 31.7018C765.815 31.8543 765.967 31.97 766.142 32.033C766.317 32.0966 766.507 32.105 766.687 32.0571C766.867 32.0091 767.028 31.9072 767.148 31.765L769.994 28.385L775.908 32.817C776.03 32.9093 776.174 32.9689 776.326 32.9905C776.478 33.012 776.633 32.9946 776.776 32.94C776.919 32.8856 777.047 32.7959 777.146 32.6791C777.246 32.5623 777.314 32.4223 777.345 32.272L780.982 14.088C781.014 13.9273 781.002 13.7609 780.948 13.6065C780.893 13.4521 780.797 13.3154 780.671 13.211C780.545 13.1062 780.394 13.0373 780.232 13.0116C780.071 12.9859 779.905 13.0043 779.753 13.065L761.569 20.34C761.42 20.4009 761.29 20.4998 761.192 20.6269C761.094 20.754 761.031 20.9048 761.009 21.064C760.988 21.2232 761.009 21.3852 761.071 21.5334C761.133 21.6816 761.233 21.8109 761.361 21.908ZM812.612 28.621L810.531 26.544L818.751 18.323L818.753 18.322L823.425 22.996L828.79 17.632L826.537 15.379H833.469V22.311L830.87 19.712L823.425 27.156L818.751 22.482L812.612 28.621ZM872.129 23.928C874.396 23.928 876.15 21.22 876.475 18.143C876.8 15.065 874.529 12.357 872.129 12.357C869.729 12.357 867.534 15.132 867.783 18.143C868.031 21.153 869.861 23.928 872.129 23.928ZM875.454 24.72C874.738 25.623 873.622 26.072 872 26.043C870.428 26.016 869.32 25.577 868.595 24.7L864.8 26.27C864.02 26.58 863.648 27.353 863.513 28.18L863 31.643H881L880.486 28.18C880.376 27.32 879.978 26.58 879.2 26.27L875.454 24.72ZM929.667 20.333V16.167C929.667 15.9458 929.579 15.7337 929.423 15.5773C929.266 15.4209 929.054 15.333 928.833 15.333H924.667C924.666 14.4492 924.314 13.6019 923.689 12.977C923.064 12.3522 922.217 12.0008 921.333 12C920.449 12.001 919.602 12.3525 918.977 12.9774C918.353 13.6022 918.001 14.4493 918 15.333H913.833C913.724 15.333 913.615 15.3546 913.514 15.3965C913.413 15.4384 913.321 15.4999 913.244 15.5773C913.166 15.6548 913.105 15.7467 913.063 15.8479C913.021 15.9491 913 16.0575 913 16.167V20.333C913.884 20.333 914.732 20.6842 915.357 21.3093C915.982 21.9345 916.333 22.7824 916.333 23.6665C916.333 24.5506 915.982 25.3985 915.357 26.0236C914.732 26.6488 913.884 27 913 27V31.167C913 31.627 913.373 32 913.833 32H918C918.015 31.1259 918.373 30.2927 918.997 29.6799C919.62 29.0671 920.459 28.7237 921.333 28.7237C922.208 28.7237 923.047 29.0671 923.67 29.6799C924.294 30.2927 924.652 31.1259 924.667 32H928.833C929.054 32 929.266 31.9123 929.422 31.7561C929.579 31.5999 929.667 31.388 929.667 31.167V27C930.551 26.9989 931.398 26.6474 932.023 26.0226C932.647 25.3978 932.999 24.5506 933 23.667C932.999 22.7832 932.648 21.9358 932.023 21.3107C931.398 20.6857 930.551 20.334 929.667 20.333Z" fill="white"/>
<path d="M1219.14 22.8272C1219.1 22.8659 1219.1 22.9245 1219.14 22.9632L1219.14 22.9624C1220.03 23.9377 1220.93 24.9121 1221.82 25.8878C1222.66 26.8011 1223.5 27.7156 1224.35 28.6328C1224.38 28.669 1224.35 28.7284 1224.3 28.7293C1224.24 28.731 1224.18 28.731 1224.17 28.731C1224.04 28.7311 1223.9 28.7312 1223.77 28.7313C1222.68 28.7321 1221.67 28.7329 1220.56 28.7275C1220.49 28.7267 1220.41 28.6785 1220.36 28.6277C1219.71 27.9156 1219.06 27.2009 1218.41 26.486C1218.23 26.2888 1218.05 26.0916 1217.87 25.8945C1217.72 25.7317 1217.57 25.5694 1217.42 25.4C1217.32 25.3005 1217.23 25.1986 1217.13 25.0928C1217.12 25.1088 1217.12 25.1234 1217.11 25.1369C1217.09 25.1641 1217.08 25.1866 1217.06 25.2056C1216.77 25.5257 1216.48 25.8457 1216.19 26.1657C1215.45 26.9735 1214.72 27.7812 1213.99 28.5898C1213.9 28.681 1213.83 28.7362 1213.69 28.7362C1212.49 28.7293 1211.31 28.7241 1210.11 28.7241H1210.08C1210.01 28.7241 1209.97 28.6371 1210.02 28.5829C1210.03 28.5682 1210.05 28.5539 1210.06 28.5398C1210.1 28.4967 1210.14 28.456 1210.17 28.4158C1210.47 28.0875 1210.77 27.7592 1211.07 27.4309C1212.42 25.9611 1213.77 24.4913 1215.12 23.0244C1215.21 22.9228 1215.21 22.8633 1215.12 22.7652C1214.12 21.6657 1213.11 20.5637 1212.11 19.4615C1211.81 19.1255 1211.5 18.7895 1211.2 18.4536C1211 18.2377 1210.81 18.0216 1210.61 17.8018C1210.42 17.5964 1210.23 17.3877 1210.04 17.1731C1209.98 17.1076 1210.02 17.0034 1210.11 17.0034C1210.38 17.0034 1210.65 17.0036 1210.92 17.0037C1211.83 17.0042 1212.73 17.0046 1213.63 17C1213.77 17 1213.85 17.0456 1213.94 17.1447C1214.53 17.7958 1215.12 18.4452 1215.71 19.0949C1216.14 19.5742 1216.58 20.0536 1217.01 20.534C1217.03 20.5512 1217.04 20.571 1217.05 20.5926C1217.09 20.6511 1217.17 20.6589 1217.21 20.6107C1217.24 20.5805 1217.26 20.559 1217.28 20.5366C1217.44 20.3619 1217.6 20.1872 1217.76 20.0125C1218.64 19.0478 1219.52 18.0831 1220.4 17.1214C1220.45 17.0611 1220.55 17.0095 1220.63 17.0095C1221.84 17.0026 1223.85 17.0078 1224.09 17.0112C1224.22 17.0129 1224.28 17.1619 1224.2 17.254L1219.14 22.8272Z" fill="white"/>
<path fill-rule="evenodd" clip-rule="evenodd" d="M1228.18 17.0052C1229.04 17.0086 1229.87 17.1998 1230.65 17.5727C1232.99 18.6861 1234.35 21.2626 1233.92 23.7908C1233.43 26.6764 1231.04 28.7138 1228.11 28.7319C1227.12 28.7379 1226.7 28.7353 1225.74 28.7284C1225.62 28.7276 1225.46 28.6561 1225.38 28.5691C1224.16 27.2458 1222.94 25.9196 1221.73 24.5931C1221.6 24.4557 1221.48 24.3183 1221.35 24.1809C1221.19 24.0045 1221.03 23.828 1220.87 23.6503C1220.67 23.4358 1220.47 23.2197 1220.27 23.0003C1220.22 22.9409 1220.22 22.8487 1220.27 22.7893C1220.29 22.7665 1220.31 22.7441 1220.33 22.7219C1220.4 22.6487 1220.46 22.5787 1220.53 22.5086C1220.9 22.0968 1221.27 21.6849 1221.65 21.2731C1222.87 19.9221 1224.1 18.5713 1225.33 17.2231C1225.44 17.1051 1225.66 17.0078 1225.82 17.0069C1226.75 17.0017 1227.19 17.0009 1228.18 17.0052ZM1224.33 22.8659C1224.33 24.7845 1225.88 26.3406 1227.8 26.3406C1229.72 26.3406 1231.28 24.7845 1231.28 22.8659C1231.28 20.9474 1229.72 19.3913 1227.8 19.3913C1225.88 19.3913 1224.33 20.9474 1224.33 22.8659Z" fill="white"/>
<path d="M1180.08 14.3175L1176.34 20.7888H1183.81C1183.93 20.7888 1184.02 20.8836 1184.02 20.9994V25.0006C1184.02 25.1164 1183.93 25.2111 1183.81 25.2111H1176.34L1172.51 18.5778L1168.68 25.2112H1161.21C1161.09 25.2112 1161 25.1164 1161 25.0006V20.9994C1161 20.8836 1161.09 20.7888 1161.21 20.7888H1168.68L1164.95 14.3175C1164.89 14.2165 1164.92 14.088 1165.02 14.029L1168.49 12.0285C1168.59 11.9716 1168.72 12.0053 1168.78 12.1064L1172.51 18.5776L1176.25 12.1064C1176.31 12.0053 1176.44 11.9695 1176.54 12.0285L1180 14.029C1180.1 14.088 1180.14 14.2165 1180.08 14.3175Z" fill="white"/>
<path d="M1168.68 25.2112L1164.95 31.6825C1164.89 31.7835 1164.92 31.912 1165.02 31.971L1168.49 33.9715C1168.59 34.0305 1168.72 33.9947 1168.78 33.8936L1172.51 27.4223L1176.25 33.8936C1176.31 33.9947 1176.44 34.0284 1176.54 33.9715L1180 31.971C1180.11 31.912 1180.14 31.7835 1180.08 31.6825L1176.35 25.2112L1168.68 25.2112Z" fill="white"/>
</svg>
