<svg width="24" height="25" viewBox="0 0 24 25" fill="none" xmlns="http://www.w3.org/2000/svg">
<path d="M19.5 11.39H18V7.39001C18 6.29001 17.1 5.39001 16 5.39001H12V3.89001C12 3.22697 11.7366 2.59108 11.2678 2.12224C10.7989 1.6534 10.163 1.39001 9.5 1.39001C8.83696 1.39001 8.20107 1.6534 7.73223 2.12224C7.26339 2.59108 7 3.22697 7 3.89001V5.39001H3C1.9 5.39001 1.01 6.29001 1.01 7.39001V11.19H2.5C3.99 11.19 5.2 12.4 5.2 13.89C5.2 15.38 3.99 16.59 2.5 16.59H1V20.39C1 21.49 1.9 22.39 3 22.39H6.8V20.89C6.8 19.4 8.01 18.19 9.5 18.19C10.99 18.19 12.2 19.4 12.2 20.89V22.39H16C17.1 22.39 18 21.49 18 20.39V16.39H19.5C20.163 16.39 20.7989 16.1266 21.2678 15.6578C21.7366 15.1889 22 14.553 22 13.89C22 13.227 21.7366 12.5911 21.2678 12.1222C20.7989 11.6534 20.163 11.39 19.5 11.39Z" fill="white"/>
</svg>
