<svg width="64" height="121" viewBox="0 0 64 121" fill="none" xmlns="http://www.w3.org/2000/svg">
<rect width="64" height="121" fill="#1E1E1E"/>
<g id="www.exodus.com by html.to.design &#226;&#157;&#164;&#239;&#184;&#143; FREE version - 22/08/2024, 14:54:37 GMT-4">
<rect width="1920" height="8003.16" transform="translate(-375 -5429)" fill="white"/>
<rect width="1920" height="8003.16" transform="translate(-375 -5429)" fill="#1F1B34"/>
<g id="Background">
<rect width="1920" height="8003.16" transform="translate(-375 -5429)" fill="#1F2033"/>
<g id="Main">
<g id="Section">
<g id="Container">
<g id="List">
<g id="Item">
<g id="Container_2">
<g id="SVG">
<path id="Vector" opacity="0.25" d="M32.0007 22.6099L32 97.6088L31.9983 97.6097C10.6958 86.681 0.0309728 71.6643 0.00389703 52.5579C-0.00129901 48.8912 -0.00129901 42.8791 0.00389703 34.5214L32.0007 22.6099Z" fill="url(#paint0_linear_0_1)"/>
<path id="Vector_2" opacity="0.5" d="M32 28.6099L5.00329 38.6158C4.9989 45.6362 4.9989 50.6864 5.00329 53.7664C5.02613 69.8158 14.0246 82.4298 31.9985 91.6099C49.9745 82.4312 58.9739 69.8167 58.9967 53.7664C59.0011 50.6864 59.0011 45.6362 58.9967 38.6158L32 28.6099Z" fill="url(#paint1_linear_0_1)"/>
<path id="Vector_3" d="M53.8087 30.7293L31.9988 52.5392L31.9991 22.6099L53.8087 30.7293Z" fill="#FE9D39"/>
<path id="Vector_4" d="M31.9985 79.5397L63.6974 47.8408L63.9984 48.1418L63.9982 48.8243L63.9952 34.5218L53.8087 30.7295L31.9988 52.5394L31.9985 79.5397Z" fill="#FFC82D"/>
<path id="Vector_5" d="M63.9984 48.1413L63.9951 52.5578C63.968 71.665 53.3024 86.6821 31.9983 97.6091L31.9985 79.5392L63.6974 47.8403L63.9984 48.1413Z" fill="#FFC82D"/>
<g id="Group" style="mix-blend-mode:overlay" opacity="0.4">
<path id="Vector_6" d="M63.9984 48.1413L63.9951 52.5578C63.968 71.665 53.3024 86.6821 31.9983 97.6091L31.9985 79.5392L63.6974 47.8403L63.9984 48.1413Z" fill="white"/>
</g>
<path id="Vector_7" d="M31.9983 91.6095L31.9989 28.6099L58.9957 38.6157C59.0001 45.6362 59.0001 50.6864 58.9957 53.7664C58.9728 69.8164 49.9737 82.4308 31.9983 91.6095Z" fill="url(#paint2_linear_0_1)"/>
<path id="Vector_8" opacity="0.4" fill-rule="evenodd" clip-rule="evenodd" d="M31.4993 6.10986V5.60986H32.4993V6.10986H31.4993ZM31.4993 11.1099V10.1099H32.4993V11.1099H31.4993ZM31.4993 16.1099V15.1099H32.4993V16.1099H31.4993ZM31.4993 21.1099V20.1099H32.4993V21.1099H31.4993ZM31.4993 26.1099V25.1099H32.4993V26.1099H31.4993ZM31.4993 31.1099V30.1099H32.4993V31.1099H31.4993ZM31.4993 36.1099V35.1099H32.4993V36.1099H31.4993ZM31.4993 41.1099V40.1099H32.4993V41.1099H31.4993ZM31.4993 46.1099V45.1099H32.4993V46.1099H31.4993ZM31.4993 51.1099V50.1099H32.4993V51.1099H31.4993ZM31.4993 56.1099V55.1099H32.4993V56.1099H31.4993ZM31.4993 61.1099V60.1099H32.4993V61.1099H31.4993ZM31.4993 66.1099V65.1099H32.4993V66.1099H31.4993ZM31.4993 71.1099V70.1099H32.4993V71.1099H31.4993ZM31.4993 76.1099V75.1099H32.4993V76.1099H31.4993ZM31.4993 81.1099V80.1099H32.4993V81.1099H31.4993ZM31.4993 86.1099V85.1099H32.4993V86.1099H31.4993ZM31.4993 91.1099V90.1099H32.4993V91.1099H31.4993ZM31.4993 96.1099V95.1099H32.4993V96.1099H31.4993ZM31.4993 101.11V100.11H32.4993V101.11H31.4993ZM31.4993 106.11V105.11H32.4993V106.11H31.4993ZM31.4993 111.11V110.11H32.4993V111.11H31.4993ZM31.4993 115.61V115.11H32.4993V115.61H31.4993Z" fill="white"/>
<path id="Vector_9" fill-rule="evenodd" clip-rule="evenodd" d="M30.9969 70.0609L21.2805 60.3445L24.5457 57.0794L31.0223 63.5569L42.4514 52.1289L45.6902 55.3677L30.9969 70.0609Z" fill="white"/>
</g>
</g>
</g>
</g>
</g>
</g>
</g>
</g>
</g>
<defs>
<linearGradient id="paint0_linear_0_1" x1="8.69831" y1="22.6097" x2="66.4162" y2="89.5847" gradientUnits="userSpaceOnUse">
<stop stop-color="white" stop-opacity="0.1"/>
<stop offset="1" stop-color="white" stop-opacity="0.5"/>
</linearGradient>
<linearGradient id="paint1_linear_0_1" x1="52.6302" y1="92.2399" x2="5.11043" y2="37.3437" gradientUnits="userSpaceOnUse">
<stop stop-color="white" stop-opacity="0.1"/>
<stop offset="1" stop-color="white" stop-opacity="0.5"/>
</linearGradient>
<linearGradient id="paint2_linear_0_1" x1="31.999" y1="28.6099" x2="31.999" y2="91.6099" gradientUnits="userSpaceOnUse">
<stop stop-opacity="0.15"/>
<stop offset="1" stop-color="white" stop-opacity="0"/>
</linearGradient>
</defs>
</svg>
