<svg width="71" height="121" viewBox="0 0 71 121" fill="none" xmlns="http://www.w3.org/2000/svg">
<rect width="71" height="121" fill="#1E1E1E"/>
<g id="www.exodus.com by html.to.design &#226;&#157;&#164;&#239;&#184;&#143; FREE version - 22/08/2024, 14:54:37 GMT-4">
<rect width="1920" height="8003.16" transform="translate(-772 -5429)" fill="white"/>
<rect width="1920" height="8003.16" transform="translate(-772 -5429)" fill="#1F1B34"/>
<g id="Background">
<rect width="1920" height="8003.16" transform="translate(-772 -5429)" fill="#1F2033"/>
<g id="Main">
<g id="Section">
<g id="Container">
<g id="List">
<g id="Item">
<g id="Container_2">
<g id="SVG">
<path id="Vector" opacity="0.25" fill-rule="evenodd" clip-rule="evenodd" d="M53.4797 40.669V38.1106C53.4733 32.3186 49.4483 27.485 44.1919 26.9554L41.4476 20.9538C41.0578 20.3762 39.9697 20.5858 38.4933 21.141L27.6894 25.373C22.3408 27.7859 18.7501 33.3794 18.4797 39.717V40.669C18.1869 40.4418 17.8799 40.3186 17.5712 40.3458C16.2587 40.461 15.4108 43.053 15.6796 46.1346C15.9421 49.165 17.1894 51.5283 18.4797 51.4947V52.9507C18.4797 59.9523 25.7374 70.6419 35.9797 70.6419C46.2203 70.6419 53.4812 59.9491 53.4797 52.9507V51.4947C54.7699 51.5283 56.014 49.165 56.2781 46.1346C56.5469 43.053 55.699 40.461 54.3865 40.3458C54.0794 40.3186 53.7708 40.4418 53.4797 40.669Z" fill="url(#paint0_linear_0_1)"/>
<path id="Vector_2" opacity="0.4" fill-rule="evenodd" clip-rule="evenodd" d="M50.8879 42.3207C53.4788 42.3207 53.4788 40.2695 53.4788 40.2695V38.1111C53.474 32.3191 49.449 27.4855 44.1926 26.9559L41.4483 20.9543C41.057 20.3767 39.9704 20.5863 38.494 21.1415L27.6901 25.3735C22.3415 27.7863 18.7492 33.3783 18.4788 39.7175V45.7079C18.4788 45.7079 22.192 40.3751 28.6876 40.1079C35.1833 39.8407 36.6279 41.8135 42.4681 42.2935C44.7876 42.4855 48.4376 42.3207 50.8879 42.3207Z" fill="url(#paint1_linear_0_1)"/>
<path id="Vector_3" opacity="0.25" fill-rule="evenodd" clip-rule="evenodd" d="M27.9793 59.0098C27.9793 59.0098 28.6665 64.6417 35.9797 64.6417C43.293 64.6417 43.9793 59.0098 43.9793 59.0098" fill="url(#paint2_linear_0_1)"/>
<path id="Vector_4" d="M39.4058 101.01L61.8154 78.6006L65.9784 80.1142C69.0059 81.3206 70.9898 84.2678 70.9802 87.5446V101.01H58.9794V89.0102L55.9794 101.01H39.4058Z" fill="#FFC82D"/>
<g id="Group" style="mix-blend-mode:overlay" opacity="0.4">
<path id="Vector_5" d="M39.4058 101.01L61.8154 78.6006L65.9784 80.1142C69.0059 81.3206 70.9898 84.2678 70.9802 87.5446V101.01H58.9794V89.0102L55.9794 101.01H39.4058Z" fill="white"/>
</g>
<path id="Vector_6" d="M61.8153 78.6002L39.4058 101.01H39.4144H15.9792L15.2922 98.2618L34.3868 79.1672C34.9037 79.2022 35.4347 79.2244 35.98 79.2338C42.288 79.3442 46.628 77.6002 49.4105 74.0898L61.8153 78.6002Z" fill="#FFC82D"/>
<path id="Vector_7" d="M12.9792 101.01V100.575L12.5442 101.01H12.9792Z" fill="#FFC82D"/>
<path id="Vector_8" d="M35.13 79.2083C29.4658 78.9641 25.4239 77.2622 22.7358 74.0098L5.98192 80.1138C2.95283 81.3202 0.968967 84.2674 0.980057 87.5442V101.01H12.5443L12.9792 100.575V101.01L12.9793 89.0098L15.2923 98.2618L34.3868 79.1673C34.6313 79.1839 34.8791 79.1975 35.13 79.2083Z" fill="#FE9D39"/>
</g>
</g>
</g>
</g>
</g>
</g>
</g>
</g>
</g>
<defs>
<linearGradient id="paint0_linear_0_1" x1="22.5143" y1="20.6099" x2="58.3673" y2="64.2537" gradientUnits="userSpaceOnUse">
<stop stop-color="white" stop-opacity="0.1"/>
<stop offset="1" stop-color="white" stop-opacity="0.5"/>
</linearGradient>
<linearGradient id="paint1_linear_0_1" x1="54.1788" y1="39.7407" x2="25.0882" y2="19.0851" gradientUnits="userSpaceOnUse">
<stop stop-color="white" stop-opacity="0.1"/>
<stop offset="1" stop-color="white" stop-opacity="0.5"/>
</linearGradient>
<linearGradient id="paint2_linear_0_1" x1="27.9793" y1="61.4769" x2="42.7505" y2="66.6252" gradientUnits="userSpaceOnUse">
<stop stop-color="white" stop-opacity="0.1"/>
<stop offset="1" stop-color="white" stop-opacity="0.5"/>
</linearGradient>
</defs>
</svg>
